<svg width="559" height="628" viewBox="0 0 559 628" fill="none" xmlns="http://www.w3.org/2000/svg">
<path d="M30.8603 310.527C13.1618 332.11 18.9079 363.666 91.7891 423.428C164.67 483.19 238.1 514.139 255.798 492.556C273.497 470.972 228.762 405.028 155.881 345.266C82.9998 285.504 48.5588 288.943 30.8603 310.527Z" fill="#C9AC8B"/>
<path d="M30.8603 310.527C13.1618 332.11 18.9079 363.666 91.7891 423.428C164.67 483.19 238.1 514.139 255.798 492.556C273.497 470.972 228.762 405.028 155.881 345.266C82.9998 285.504 48.5588 288.943 30.8603 310.527Z" fill="#C9AC8B"/>
<path d="M30.8603 310.527C13.1618 332.11 18.9079 363.666 91.7891 423.428C164.67 483.19 238.1 514.139 255.798 492.556C273.497 470.972 228.762 405.028 155.881 345.266C82.9998 285.504 48.5588 288.943 30.8603 310.527Z" stroke="#43494F" stroke-width="20"/>
<rect x="-1.36141" y="6.93877" width="62.4779" height="26.7397" rx="13.3698" transform="matrix(-0.830018 0.557736 0.557736 0.830018 85.4086 285.328)" fill="#5C5F7A" stroke="#43494F" stroke-width="10"/>
<mask id="path-4-outside-1_1521_3420" maskUnits="userSpaceOnUse" x="251.316" y="-26.2138" width="319.431" height="252.269" fill="black">
<rect fill="white" x="251.316" y="-26.2138" width="319.431" height="252.269"/>
<path fill-rule="evenodd" clip-rule="evenodd" d="M390.712 71.7324C407.487 51.9278 437.965 37.8403 459.769 32.4479C493.868 24.0142 531.097 42.9103 540.169 82.489C549.242 122.068 527.391 178.93 493.291 187.364C459.191 195.797 388.494 149.741 379.421 110.163C378.374 105.594 378.185 101.157 378.722 96.8692L279.652 149.921L272.015 135.295L390.712 71.7324Z"/>
</mask>
<path fill-rule="evenodd" clip-rule="evenodd" d="M390.712 71.7324C407.487 51.9278 437.965 37.8403 459.769 32.4479C493.868 24.0142 531.097 42.9103 540.169 82.489C549.242 122.068 527.391 178.93 493.291 187.364C459.191 195.797 388.494 149.741 379.421 110.163C378.374 105.594 378.185 101.157 378.722 96.8692L279.652 149.921L272.015 135.295L390.712 71.7324Z" fill="#5C5F7A"/>
<path d="M459.769 32.4479L457.368 22.7404L457.368 22.7404L459.769 32.4479ZM390.712 71.7324L398.343 78.1956L397.112 79.6489L395.433 80.5479L390.712 71.7324ZM540.169 82.489L530.422 84.7233L530.422 84.7233L540.169 82.489ZM493.291 187.364L490.89 177.656L490.89 177.656L493.291 187.364ZM379.421 110.163L369.674 112.397L369.674 112.397L379.421 110.163ZM378.722 96.8692L374.001 88.0536L391.047 78.9253L388.644 98.112L378.722 96.8692ZM279.652 149.921L284.373 158.737L275.465 163.507L270.788 154.549L279.652 149.921ZM272.015 135.295L263.151 139.923L258.571 131.151L267.295 126.479L272.015 135.295ZM462.169 42.1554C441.467 47.2757 413.244 60.6033 398.343 78.1956L383.082 65.2691C401.73 43.2522 434.464 28.4049 457.368 22.7404L462.169 42.1554ZM530.422 84.7233C522.689 50.9857 491.242 34.965 462.169 42.1554L457.368 22.7404C496.495 13.0634 539.505 34.8349 549.916 80.2546L530.422 84.7233ZM490.89 177.656C503.463 174.547 515.638 161.706 523.716 142.695C531.653 124.019 534.399 102.072 530.422 84.7233L549.916 80.2546C555.012 102.484 551.369 128.759 542.123 150.517C533.02 171.94 517.219 191.747 495.692 197.071L490.89 177.656ZM389.168 107.928C390.936 115.64 395.959 124.493 403.808 133.566C411.571 142.539 421.616 151.167 432.525 158.452C443.44 165.741 454.934 171.495 465.474 174.912C476.229 178.4 484.958 179.123 490.89 177.656L495.692 197.071C484.575 199.821 471.679 197.95 459.304 193.937C446.714 189.855 433.573 183.201 421.417 175.084C409.255 166.962 397.794 157.182 388.683 146.651C379.659 136.221 372.443 124.475 369.674 112.397L389.168 107.928ZM388.644 98.112C388.252 101.243 388.383 104.503 389.168 107.928L369.674 112.397C368.365 106.685 368.117 101.071 368.799 95.6265L388.644 98.112ZM274.931 141.105L374.001 88.0536L383.443 105.685L284.373 158.737L274.931 141.105ZM280.88 130.666L288.517 145.293L270.788 154.549L263.151 139.923L280.88 130.666ZM395.433 80.5479L276.736 144.11L267.295 126.479L385.992 62.9168L395.433 80.5479Z" fill="#43494F" mask="url(#path-4-outside-1_1521_3420)"/>
<path d="M302.757 98.4408C286.635 128.272 296.8 164.56 324.806 179.694C352.812 194.829 388.736 183.449 404.858 153.617C420.979 123.786 410.814 87.4986 382.808 72.364C354.803 57.2295 318.878 68.6092 302.757 98.4408Z" fill="#C9AC8B" stroke="#43494F" stroke-width="10"/>
<circle cx="163.5" cy="163.5" r="158.5" transform="matrix(-1 0 0 1 383.635 96)" fill="#C9AC8B" stroke="#43494F" stroke-width="10"/>
<ellipse cx="28" cy="35.5" rx="28" ry="35.5" transform="matrix(-0.797271 -0.603621 -0.603621 0.797271 398.635 113.803)" fill="#FDEFD9"/>
<path d="M64.1958 128.707C76.476 160.928 110.902 178.773 140.64 169.537C170.378 160.302 185.354 127.113 173.074 94.8926C160.793 62.6719 126.367 44.8267 96.6293 54.0625C66.8916 63.2983 51.9156 96.4867 64.1958 128.707Z" fill="#C9AC8B" stroke="#43494F" stroke-width="10"/>
<ellipse cx="28.5" cy="35.5" rx="28.5" ry="35.5" transform="matrix(-0.857452 0.514563 0.514563 0.857452 122.101 67)" fill="#FDEFD9"/>
<path d="M164.624 275.073C163.624 278.073 167.003 281.427 175.135 282.907C183.266 284.387 190.124 284.073 190.124 280.074C189.124 276.074 186.756 272.553 178.624 271.074C170.124 269.527 167.624 272.073 164.624 275.073Z" fill="#43494F"/>
<ellipse cx="24" cy="30" rx="24" ry="30" transform="matrix(-0.98329 -0.182047 -0.182047 0.98329 270.635 241.737)" fill="#43494F" stroke="#43494F" stroke-width="7"/>
<path d="M231.057 246.337C226.206 252.117 233.673 259.643 243.086 263.225C251.075 267.133 258.416 266.702 259.995 261.255C261.928 254.587 258.846 247.626 250.857 243.717C242.868 239.809 235.164 241.445 231.057 246.337Z" fill="white"/>
<path d="M222.944 270.468C219.75 276.003 224.574 285.61 232.531 289.503C240.488 293.395 249.606 290.923 252.801 285.388C254.637 278.802 250.518 273.612 242.562 269.72C234.366 264.921 225.291 265.234 222.944 270.468Z" fill="white"/>
<ellipse cx="24" cy="30" rx="24" ry="30" transform="matrix(-0.98329 -0.182047 -0.182047 0.98329 158.635 222.738)" fill="#43494F" stroke="#43494F" stroke-width="7"/>
<path d="M119.057 227.338C114.206 233.118 121.673 240.644 131.086 244.226C139.075 248.134 146.416 247.703 147.995 242.256C149.928 235.588 146.846 228.627 138.857 224.718C130.868 220.81 123.164 222.446 119.057 227.338Z" fill="white"/>
<path d="M110.944 251.469C107.75 257.004 112.574 266.611 120.531 270.504C128.488 274.396 137.606 271.924 140.801 266.389C142.637 259.803 138.518 254.613 130.562 250.721C122.366 245.922 113.291 246.235 110.944 251.469Z" fill="white"/>
<mask id="path-18-inside-2_1521_3420" fill="white">
<path fill-rule="evenodd" clip-rule="evenodd" d="M109.384 404.513C56.612 373.195 50.5446 347.845 62.1234 324.836C75.2124 298.827 104.344 287.5 179.88 322.892C254.694 354.98 286.51 376.411 297.844 392.797C298.328 392.529 298.811 392.26 299.292 391.987C306.228 407.365 310.51 425.244 312.725 443.876C314.788 448.826 316.619 460.722 320.061 485.217C329.918 555.366 318.975 623.057 292.261 626.811C269.29 630.039 224.129 628.542 208.263 576.018C206.729 576.004 205.186 575.976 203.633 575.937L203.286 575.928C198.046 611.277 177.118 621.384 161.754 623.631C141.129 626.648 104.984 625.296 96.9258 539.829C92.3419 525.603 90.2439 512.219 90.0106 499.808C89.0979 493.321 88.7068 486.32 88.8867 478.768C89.5447 451.146 97.0456 425.631 109.384 404.513Z"/>
</mask>
<path fill-rule="evenodd" clip-rule="evenodd" d="M109.384 404.513C56.612 373.195 50.5446 347.845 62.1234 324.836C75.2124 298.827 104.344 287.5 179.88 322.892C254.694 354.98 286.51 376.411 297.844 392.797C298.328 392.529 298.811 392.26 299.292 391.987C306.228 407.365 310.51 425.244 312.725 443.876C314.788 448.826 316.619 460.722 320.061 485.217C329.918 555.366 318.975 623.057 292.261 626.811C269.29 630.039 224.129 628.542 208.263 576.018C206.729 576.004 205.186 575.976 203.633 575.937L203.286 575.928C198.046 611.277 177.118 621.384 161.754 623.631C141.129 626.648 104.984 625.296 96.9258 539.829C92.3419 525.603 90.2439 512.219 90.0106 499.808C89.0979 493.321 88.7068 486.32 88.8867 478.768C89.5447 451.146 97.0456 425.631 109.384 404.513Z" fill="#C9AC8B"/>
<path d="M62.1234 324.836L71.056 329.332L62.1234 324.836ZM109.384 404.513L114.487 395.914L123.028 400.982L118.018 409.558L109.384 404.513ZM179.88 322.892L175.938 332.082L175.787 332.017L175.637 331.947L179.88 322.892ZM297.844 392.797L302.676 401.552L294.762 405.919L289.619 398.485L297.844 392.797ZM299.292 391.987L294.367 383.284L303.902 377.889L308.407 387.875L299.292 391.987ZM312.725 443.876L303.495 447.724L302.96 446.439L302.795 445.057L312.725 443.876ZM320.061 485.217L329.964 483.826L320.061 485.217ZM292.261 626.811L293.652 636.714L293.652 636.714L292.261 626.811ZM208.263 576.018L208.356 566.018L215.709 566.087L217.836 573.126L208.263 576.018ZM203.633 575.937L203.379 585.934L203.373 585.934L203.633 575.937ZM203.286 575.928L193.394 574.462L194.692 565.701L203.546 565.931L203.286 575.928ZM161.754 623.631L160.307 613.737L160.307 613.737L161.754 623.631ZM96.9258 539.829L106.444 536.763L106.779 537.803L106.882 538.891L96.9258 539.829ZM90.0106 499.808L99.9131 498.415L99.9975 499.015L100.009 499.62L90.0106 499.808ZM88.8867 478.768L98.8839 479.006L98.8839 479.006L88.8867 478.768ZM71.056 329.332C66.4142 338.555 65.5731 347.252 70.5385 357.031C75.9234 367.637 88.6838 380.6 114.487 395.914L104.28 413.113C77.3119 397.108 60.6526 381.737 52.7056 366.086C44.3392 349.609 46.2537 334.126 53.1907 320.341L71.056 329.332ZM175.637 331.947C138.338 314.471 114.152 309.383 98.4839 310.798C90.8752 311.486 85.4132 313.694 81.2888 316.682C77.1203 319.701 73.788 323.903 71.056 329.332L53.1907 320.341C57.0033 312.765 62.2208 305.798 69.5563 300.484C76.9358 295.139 85.9318 291.851 96.6842 290.879C117.738 288.977 145.885 295.921 184.123 313.837L175.637 331.947ZM289.619 398.485C285.143 392.013 275.773 383.437 257.461 372.27C239.309 361.202 213.134 348.035 175.938 332.082L183.822 313.702C221.441 329.836 248.58 343.43 267.873 355.195C287.006 366.862 299.211 377.195 306.068 387.108L289.619 398.485ZM304.216 400.691C303.704 400.98 303.191 401.267 302.676 401.552L293.012 384.041C293.465 383.791 293.917 383.539 294.367 383.284L304.216 400.691ZM302.795 445.057C300.662 427.116 296.578 410.292 290.176 396.099L308.407 387.875C315.879 404.438 320.358 423.372 322.655 442.696L302.795 445.057ZM310.159 486.609C308.434 474.335 307.137 465.391 306.021 458.914C304.857 452.153 304.032 449.013 303.495 447.724L321.956 440.029C323.481 443.69 324.604 448.972 325.731 455.52C326.908 462.353 328.247 471.605 329.964 483.826L310.159 486.609ZM290.869 616.909C293.204 616.581 296.714 614.66 300.614 607.946C304.445 601.35 307.73 591.582 310.043 579.092C314.647 554.219 314.973 520.873 310.159 486.609L329.964 483.826C335.006 519.71 334.79 555.284 329.708 582.733C327.178 596.403 323.335 608.647 317.909 617.99C312.551 627.216 304.675 635.165 293.652 636.714L290.869 616.909ZM217.836 573.126C224.893 596.49 238.009 607.651 251.35 613.052C265.216 618.666 280.265 618.399 290.869 616.909L293.652 636.714C281.286 638.452 262.269 639.05 243.845 631.591C224.896 623.919 207.499 608.07 198.69 578.91L217.836 573.126ZM203.887 565.94C205.388 565.978 206.878 566.005 208.356 566.018L208.17 586.017C206.581 586.003 204.984 585.974 203.379 585.934L203.887 565.94ZM203.546 565.931L203.893 565.94L203.373 585.934L203.026 585.925L203.546 565.931ZM160.307 613.737C166.551 612.823 173.567 610.367 179.523 604.854C185.389 599.425 191.049 590.276 193.394 574.462L213.177 577.394C210.282 596.929 202.858 610.508 193.109 619.532C183.451 628.471 172.321 632.192 163.202 633.526L160.307 613.737ZM106.882 538.891C110.818 580.645 121.431 599.135 131.074 607.267C140.37 615.107 150.913 615.111 160.307 613.737L163.202 633.526C151.97 635.169 134.127 636.005 118.18 622.556C102.581 609.4 91.0914 584.481 86.9699 540.768L106.882 538.891ZM100.009 499.62C100.223 511.027 102.152 523.442 106.444 536.763L87.4076 542.896C82.532 527.764 80.2645 513.411 80.0124 499.996L100.009 499.62ZM98.8839 479.006C98.7156 486.067 99.0837 492.52 99.9131 498.415L80.1082 501.202C79.1121 494.123 78.6979 486.572 78.8895 478.53L98.8839 479.006ZM118.018 409.558C106.552 429.182 99.5024 453.038 98.8839 479.006L78.8895 478.53C79.5869 449.254 87.5389 422.079 100.749 399.469L118.018 409.558Z" fill="#43494F" mask="url(#path-18-inside-2_1521_3420)"/>
<path fill-rule="evenodd" clip-rule="evenodd" d="M229.76 444.658C232.514 450.029 234.438 455.927 235.342 462.209C239.727 492.688 218.428 520.66 187.77 524.687C157.113 528.713 128.705 507.268 124.32 476.789C122.621 464.975 124.779 453.538 129.846 443.726C141.7 446.582 154.776 448.549 168.604 449.381C191.057 450.733 212.179 448.893 229.76 444.658Z" fill="#FDEFD9"/>
<path d="M128.729 450.048C116.282 447.706 114.009 532 181.091 532C248.173 532 251.05 454.73 230.878 450.047C227.873 450.047 248.173 520.761 181.091 520.761C114.009 520.761 139.459 450.048 128.729 450.048Z" fill="#43494F"/>
<path d="M94.1232 390.633C92.5596 393.463 109.475 405.804 131.905 418.199C154.334 430.593 170.62 425.732 172.183 422.903C173.747 420.073 157.306 419.889 134.876 407.494C112.446 395.1 95.6868 387.803 94.1232 390.633Z" fill="#43494F"/>
<mask id="path-23-outside-3_1521_3420" maskUnits="userSpaceOnUse" x="6.63477" y="51.0002" width="404" height="214" fill="black">
<rect fill="white" x="6.63477" y="51.0002" width="404" height="214"/>
<path fill-rule="evenodd" clip-rule="evenodd" d="M253.391 68.7687C253.408 68.6418 253.416 68.514 253.416 68.3855C253.416 64.3068 244.828 61.0002 234.235 61.0002C226.133 61.0002 219.204 62.9341 216.393 65.6683C134.59 47.1962 61.8191 138.97 57.8951 208.362C58.403 210.039 58.893 211.569 59.3726 212.963C32.8947 219.9 16.6348 229.299 16.6348 239.647C16.6348 247.795 17.6803 247.109 23.7191 243.146C30.4957 238.699 43.56 230.125 68.4906 225.278C70.3148 225.522 72.4334 225.066 75.0343 224.139C84.7234 222.642 96.005 221.711 109.138 221.711C147.485 221.711 195.089 229.645 235.886 236.443L235.887 236.443L235.887 236.443C280.561 243.888 317.072 249.972 324.324 242.79C368.57 257.154 400.635 262.82 400.635 229.533C400.635 165.799 359.419 64.4326 253.391 68.7687Z"/>
</mask>
<path fill-rule="evenodd" clip-rule="evenodd" d="M253.391 68.7687C253.408 68.6418 253.416 68.514 253.416 68.3855C253.416 64.3068 244.828 61.0002 234.235 61.0002C226.133 61.0002 219.204 62.9341 216.393 65.6683C134.59 47.1962 61.8191 138.97 57.8951 208.362C58.403 210.039 58.893 211.569 59.3726 212.963C32.8947 219.9 16.6348 229.299 16.6348 239.647C16.6348 247.795 17.6803 247.109 23.7191 243.146C30.4957 238.699 43.56 230.125 68.4906 225.278C70.3148 225.522 72.4334 225.066 75.0343 224.139C84.7234 222.642 96.005 221.711 109.138 221.711C147.485 221.711 195.089 229.645 235.886 236.443L235.887 236.443L235.887 236.443C280.561 243.888 317.072 249.972 324.324 242.79C368.57 257.154 400.635 262.82 400.635 229.533C400.635 165.799 359.419 64.4326 253.391 68.7687Z" fill="#FFE000"/>
<path d="M253.391 68.7687L253.799 78.7603L241.912 79.2465L243.478 67.4528L253.391 68.7687ZM216.393 65.6683L223.365 72.8371L219.478 76.6169L214.19 75.4227L216.393 65.6683ZM57.8951 208.362L48.3247 211.262L47.811 209.566L47.911 207.797L57.8951 208.362ZM59.3726 212.963L68.8287 209.71L72.3356 219.905L61.907 222.637L59.3726 212.963ZM23.7191 243.146L29.2057 251.506L29.2056 251.506L23.7191 243.146ZM68.4906 225.278L66.5819 215.462L68.1924 215.148L69.8186 215.366L68.4906 225.278ZM75.0343 224.139L71.6773 214.719L72.5705 214.401L73.5076 214.256L75.0343 224.139ZM235.886 236.443L237.53 226.579L237.689 226.606L237.847 226.637L235.886 236.443ZM235.887 236.443L237.848 226.637L238.458 226.759L239.049 226.956L235.887 236.443ZM235.887 236.443L234.243 246.307L233.469 246.178L232.724 245.93L235.887 236.443ZM324.324 242.79L317.287 235.685L321.617 231.397L327.412 233.279L324.324 242.79ZM243.478 67.4528C243.437 67.7584 243.416 68.0703 243.416 68.3855H263.416C263.416 68.9578 263.378 69.5252 263.304 70.0846L243.478 67.4528ZM243.416 68.3855C243.416 71.1485 244.909 72.6618 245.177 72.9058C245.442 73.1468 245.268 72.9047 244.205 72.4955C242.146 71.7028 238.624 71.0002 234.235 71.0002V51.0002C240.439 51.0002 246.508 51.951 251.391 53.8312C253.799 54.7585 256.434 56.1078 258.64 58.1159C260.85 60.127 263.416 63.5832 263.416 68.3855H243.416ZM234.235 71.0002C230.934 71.0002 228.053 71.3992 225.905 71.9716C223.474 72.6196 222.973 73.218 223.365 72.8371L209.421 58.4996C212.624 55.3844 216.993 53.6487 220.754 52.6463C224.799 51.5683 229.434 51.0002 234.235 51.0002V71.0002ZM47.911 207.797C50.0328 170.276 70.5036 127.779 100.82 97.0438C131.201 66.2422 173.182 45.6591 218.596 55.9139L214.19 75.4227C177.8 67.2054 142.494 83.2732 115.059 111.088C87.5578 138.97 69.6813 177.056 67.8791 208.927L47.911 207.797ZM49.9165 216.216C49.3874 214.678 48.8592 213.026 48.3247 211.262L67.4654 205.462C67.9468 207.051 68.3987 208.46 68.8287 209.71L49.9165 216.216ZM6.63477 239.647C6.63477 228.91 14.8755 221.376 22.857 216.495C31.4236 211.256 43.1708 206.871 56.8382 203.29L61.907 222.637C49.0965 225.993 39.4749 229.776 33.2919 233.557C26.524 237.696 26.6348 240.036 26.6348 239.647H6.63477ZM29.2056 251.506C27.8771 252.378 26.1875 253.501 24.6909 254.282C23.9157 254.687 22.7218 255.256 21.2864 255.621C19.8523 255.985 17.4036 256.343 14.6432 255.388C8.48889 253.259 7.31163 247.345 7.06589 246.043C6.68055 244 6.63477 241.662 6.63477 239.647H26.6348C26.6348 241.706 26.7197 242.337 26.7191 242.334C26.7158 242.317 26.5719 241.459 25.9292 240.354C25.1699 239.047 23.6637 237.346 21.1816 236.487C18.9292 235.708 17.083 236.053 16.3612 236.237C15.638 236.42 15.2662 236.641 15.4382 236.551C15.8361 236.344 16.5417 235.895 18.2327 234.785L29.2056 251.506ZM70.3993 235.094C47.2492 239.595 35.4291 247.422 29.2057 251.506L18.2326 234.785C25.5623 229.975 39.8708 220.655 66.5819 215.462L70.3993 235.094ZM78.3913 233.558C75.4524 234.606 71.4506 235.764 67.1626 235.189L69.8186 215.366C69.416 215.312 69.3048 215.378 69.6595 215.313C70.028 215.245 70.6591 215.082 71.6773 214.719L78.3913 233.558ZM109.138 231.711C96.4782 231.711 85.7087 232.608 76.561 234.021L73.5076 214.256C83.738 212.676 95.5317 211.711 109.138 211.711V231.711ZM234.243 246.307C193.199 239.467 146.485 231.711 109.138 231.711V211.711C148.484 211.711 196.98 219.822 237.53 226.579L234.243 246.307ZM233.925 246.249L233.925 246.249L237.847 226.637L237.848 226.637L233.925 246.249ZM232.724 245.93L232.724 245.93L239.049 226.956L239.049 226.956L232.724 245.93ZM331.361 249.895C328.786 252.445 325.628 253.758 323.012 254.503C320.3 255.274 317.334 255.668 314.357 255.856C308.409 256.23 301.138 255.847 293.149 255.053C277.127 253.459 256.455 250.009 234.243 246.307L237.53 226.579C259.993 230.322 279.914 233.637 295.129 235.151C302.759 235.91 308.768 236.167 313.101 235.895C315.265 235.759 316.69 235.508 317.537 235.267C318.48 234.998 318.05 234.93 317.287 235.685L331.361 249.895ZM410.635 229.533C410.635 239.356 408.263 248.1 402.213 254.524C396.173 260.936 387.977 263.431 379.77 264.006C363.975 265.112 343.062 259.386 321.237 252.301L327.412 233.279C349.833 240.557 367.075 244.846 378.373 244.055C383.714 243.681 386.299 242.25 387.654 240.811C388.998 239.384 390.635 236.353 390.635 229.533H410.635ZM252.982 58.777C309.82 56.4526 349.659 82.689 374.893 117.787C399.833 152.476 410.635 195.863 410.635 229.533H390.635C390.635 199.47 380.829 160.306 358.654 129.462C336.773 99.0276 302.99 76.7486 253.799 78.7603L252.982 58.777Z" fill="#43494F" mask="url(#path-23-outside-3_1521_3420)"/>
<path d="M124.56 119.044C99.6093 152.206 91.7597 188.401 94.7564 190.655C97.7531 192.91 107.145 157.876 132.096 124.714C157.047 91.5528 188.107 72.8216 185.111 70.5669C182.114 68.3122 149.51 85.8827 124.56 119.044Z" fill="#43494F"/>
<path d="M233.381 76.0003C242.938 76.8134 252.493 72.4484 252.614 71.2158C252.734 69.9832 243.829 73.6103 233.381 72.5874C222.934 71.5644 217.489 66.9892 216.135 67.5004C215.635 68.0002 221.438 76.0003 233.381 76.0003Z" fill="#43494F"/>
<path d="M174.635 201C105.892 195.614 65.4837 205.442 65.1907 209.18C64.8978 212.919 105.892 203.794 174.635 209.18C243.378 214.567 313.839 232.425 314.132 228.687C314.425 224.948 243.378 206.387 174.635 201Z" fill="#43494F"/>
<path d="M312.24 142.638C327.37 178.337 325.374 213.32 321.921 214.784C318.468 216.247 318.686 182.017 303.557 146.318C288.427 110.62 263.679 86.9709 267.132 85.5075C270.585 84.0442 297.111 106.94 312.24 142.638Z" fill="#43494F"/>
<path d="M158.506 145.788C158.563 145.3 158.563 144.942 158.504 144.714C158.463 144.487 158.453 144.282 158.474 144.097C158.504 143.845 158.663 143.65 158.952 143.514C159.24 143.377 159.57 143.33 159.939 143.374C160.797 143.474 161.46 143.782 161.928 144.297C162.414 144.797 162.62 145.366 162.546 146.005L160.304 165.146C160.158 166.39 160.135 167.461 160.235 168.359C160.334 169.257 160.553 170.007 160.891 170.609C161.23 171.211 161.678 171.681 162.235 172.019C162.793 172.34 163.451 172.545 164.208 172.633C164.931 172.718 165.611 172.661 166.247 172.463C166.901 172.267 167.482 171.96 167.991 171.542C168.5 171.125 168.918 170.611 169.245 170.002C169.572 169.393 169.78 168.71 169.869 167.953C170.004 166.793 169.916 165.803 169.603 164.982C169.29 164.162 168.833 163.477 168.233 162.93C167.649 162.384 166.956 161.971 166.154 161.69C165.371 161.393 164.575 161.198 163.768 161.103C163.617 161.086 163.477 160.975 163.347 160.773C163.219 160.553 163.122 160.295 163.054 159.997C162.987 159.7 162.947 159.388 162.934 159.063C162.923 158.721 162.951 158.409 163.018 158.127C163.085 157.845 163.188 157.618 163.327 157.447C163.486 157.261 163.699 157.184 163.968 157.215C164.372 157.263 164.865 157.269 165.449 157.235C166.032 157.201 166.649 157.095 167.301 156.916C167.955 156.719 168.61 156.438 169.266 156.072C169.922 155.706 170.534 155.215 171.1 154.599C171.668 153.967 172.158 153.207 172.569 152.317C172.982 151.411 173.261 150.336 173.407 149.092C173.521 148.117 173.465 147.139 173.239 146.158C173.032 145.162 172.61 144.252 171.974 143.428C171.339 142.587 170.486 141.873 169.412 141.287C168.341 140.685 167.015 140.291 165.435 140.106C163.367 139.864 161.556 139.975 160.002 140.441C158.447 140.907 157.136 141.622 156.069 142.588C155.018 143.556 154.191 144.728 153.586 146.106C152.984 147.467 152.59 148.938 152.405 150.518C152.271 151.662 152.25 152.639 152.343 153.451C152.454 154.248 152.598 154.912 152.774 155.444C152.952 155.959 153.128 156.347 153.303 156.606C153.477 156.865 153.579 157.013 153.608 157.05C153.904 157 154.102 157.057 154.202 157.222C154.302 157.387 154.337 157.596 154.307 157.848C154.28 158.083 154.155 158.427 153.931 158.878C153.725 159.331 153.463 159.752 153.144 160.14C152.828 160.512 152.481 160.787 152.102 160.964C151.725 161.125 151.369 161.04 151.032 160.711C150.852 160.503 150.581 160.13 150.217 159.593C149.854 159.056 149.51 158.36 149.184 157.504C148.877 156.633 148.631 155.607 148.445 154.426C148.261 153.229 148.258 151.873 148.435 150.36C148.719 147.939 149.353 145.798 150.338 143.936C151.325 142.058 152.581 140.501 154.106 139.265C155.648 138.031 157.413 137.147 159.402 136.613C161.39 136.079 163.536 135.947 165.839 136.216C167.789 136.445 169.523 136.92 171.041 137.643C172.577 138.352 173.849 139.276 174.857 140.417C175.866 141.557 176.587 142.895 177.021 144.428C177.473 145.947 177.592 147.622 177.378 149.455C177.212 150.867 176.895 152.125 176.425 153.229C175.954 154.333 175.364 155.303 174.652 156.14C173.957 156.979 173.157 157.704 172.25 158.313C171.362 158.908 170.418 159.402 169.418 159.797C170.149 160.104 170.816 160.514 171.421 161.028C172.027 161.525 172.536 162.13 172.947 162.843C173.358 163.556 173.654 164.374 173.835 165.299C174.019 166.207 174.045 167.215 173.915 168.325C173.764 169.619 173.389 170.785 172.79 171.823C172.208 172.863 171.467 173.73 170.568 174.426C169.668 175.122 168.638 175.623 167.477 175.93C166.331 176.256 165.12 176.344 163.842 176.195C162.144 175.996 160.762 175.57 159.697 174.917C158.629 174.281 157.814 173.461 157.249 172.457C156.687 171.437 156.339 170.263 156.205 168.935C156.089 167.592 156.125 166.122 156.312 164.525L158.506 145.788ZM202.428 160.569C202.546 159.56 202.619 158.504 202.646 157.399L201.662 157.284C200.586 157.158 199.595 156.888 198.689 156.475C197.783 156.063 197.01 155.529 196.371 154.875C195.749 154.222 195.282 153.477 194.971 152.64C194.662 151.786 194.566 150.863 194.682 149.871C194.761 149.198 194.944 148.581 195.231 148.018C195.538 147.44 195.918 146.956 196.373 146.566C196.846 146.162 197.384 145.867 197.985 145.682C198.588 145.48 199.242 145.42 199.949 145.503C200.89 145.613 201.71 145.888 202.408 146.327C203.124 146.769 203.731 147.326 204.232 147.998C204.735 148.654 205.149 149.409 205.475 150.266C205.803 151.105 206.056 151.995 206.236 152.937C206.523 152.817 206.796 152.661 207.057 152.47C207.318 152.279 207.582 152.063 207.849 151.822C208.054 151.386 208.282 151.182 208.534 151.212C208.719 151.233 208.894 151.339 209.059 151.529C209.243 151.704 209.404 151.936 209.54 152.224C209.677 152.513 209.776 152.831 209.838 153.179C209.901 153.511 209.912 153.853 209.871 154.206C209.796 154.845 209.459 155.393 208.86 155.851C208.263 156.293 207.514 156.648 206.613 156.918C206.63 157.652 206.622 158.367 206.592 159.063C206.579 159.76 206.536 160.419 206.463 161.041C206.081 164.303 205.422 167.089 204.487 169.4C203.552 171.71 202.446 173.583 201.17 175.019C199.896 176.438 198.509 177.442 197.008 178.034C195.524 178.627 194.026 178.835 192.512 178.658C190.629 178.437 189.026 177.798 187.701 176.739C186.374 175.698 185.313 174.355 184.517 172.711C183.738 171.069 183.224 169.202 182.974 167.11C182.727 165.002 182.738 162.797 183.008 160.493C183.35 157.568 183.903 155.034 184.665 152.89C185.446 150.732 186.317 148.9 187.277 147.393C188.255 145.888 189.268 144.661 190.316 143.71C191.365 142.759 192.322 142.01 193.187 141.464C194.069 140.92 194.803 140.545 195.389 140.341C195.992 140.139 196.329 140.025 196.4 140C196.488 139.976 196.575 139.961 196.661 139.954C196.764 139.949 196.875 139.953 196.992 139.967C197.278 140 197.519 140.122 197.716 140.333C197.915 140.527 198.075 140.767 198.194 141.053C198.316 141.323 198.4 141.623 198.447 141.952C198.494 142.281 198.5 142.589 198.467 142.875C198.427 143.211 198.343 143.491 198.215 143.715C198.089 143.921 197.908 144.011 197.672 143.983C197.555 143.97 197.464 143.942 197.401 143.9C197.078 144.033 196.638 144.229 196.079 144.487C195.538 144.747 194.931 145.128 194.258 145.629C193.588 146.113 192.892 146.747 192.169 147.531C191.447 148.316 190.761 149.301 190.111 150.486C189.463 151.654 188.88 153.06 188.364 154.704C187.85 156.331 187.464 158.246 187.206 160.448C186.932 162.785 186.914 164.828 187.153 166.577C187.391 168.326 187.798 169.797 188.374 170.989C188.952 172.165 189.656 173.074 190.484 173.716C191.314 174.342 192.191 174.709 193.116 174.817C194.192 174.943 195.223 174.723 196.209 174.157C197.213 173.592 198.117 172.71 198.923 171.509C199.747 170.293 200.461 168.775 201.067 166.954C201.674 165.116 202.127 162.988 202.428 160.569ZM202.535 153.756C202.47 153.152 202.374 152.587 202.248 152.061C202.122 151.535 201.946 151.079 201.718 150.695C201.492 150.293 201.223 149.972 200.91 149.731C200.617 149.475 200.268 149.323 199.864 149.276C199.343 149.215 198.982 149.318 198.78 149.584C198.579 149.85 198.461 150.126 198.428 150.412C198.392 150.714 198.422 151.042 198.517 151.394C198.629 151.748 198.82 152.085 199.089 152.406C199.377 152.713 199.754 152.987 200.22 153.229C200.687 153.454 201.258 153.606 201.93 153.685L202.535 153.756ZM221.836 182.526C220.744 182.398 219.851 182.166 219.157 181.829C218.462 181.509 217.922 181.173 217.537 180.821C217.152 180.469 216.891 180.149 216.755 179.86C216.62 179.555 216.558 179.36 216.567 179.276C216.603 178.973 216.708 178.662 216.881 178.341C217.057 178.004 217.263 177.704 217.498 177.442C217.735 177.163 217.983 176.937 218.242 176.762C218.501 176.588 218.723 176.512 218.908 176.534C219.144 176.561 219.319 176.735 219.435 177.055C219.465 177.093 219.539 177.187 219.658 177.337C219.776 177.487 219.945 177.652 220.162 177.831C220.399 177.995 220.687 178.156 221.026 178.315C221.382 178.476 221.804 178.585 222.291 178.643C223.35 178.767 224.254 178.549 225.001 177.988C225.75 177.412 226.19 176.568 226.32 175.459C226.41 174.685 226.306 173.974 226.007 173.326C225.725 172.679 225.32 172.061 224.793 171.471C224.265 170.881 223.652 170.298 222.953 169.721C222.255 169.128 221.543 168.517 220.816 167.886C220.088 167.256 219.383 166.585 218.699 165.874C218.016 165.164 217.427 164.371 216.933 163.495C216.439 162.619 216.066 161.655 215.814 160.603C215.581 159.536 215.542 158.347 215.695 157.035C215.827 155.909 216.153 154.797 216.674 153.699C217.194 152.601 217.851 151.578 218.644 150.632C219.455 149.67 220.375 148.798 221.404 148.015C222.435 147.216 223.527 146.551 224.68 146.021C225.835 145.475 227.014 145.085 228.217 144.85C229.439 144.602 230.639 144.546 231.815 144.684C232.824 144.802 233.713 145.068 234.483 145.482C235.253 145.896 235.88 146.43 236.366 147.083C236.854 147.72 237.201 148.468 237.407 149.327C237.615 150.169 237.66 151.095 237.542 152.103C237.43 153.062 237.152 153.984 236.707 154.869C236.262 155.754 235.715 156.576 235.063 157.335C234.412 158.094 233.692 158.785 232.903 159.408C232.133 160.017 231.348 160.539 230.547 160.973C229.765 161.393 229.013 161.705 228.29 161.91C227.567 162.115 226.945 162.187 226.424 162.126C225.97 162.073 225.57 161.924 225.224 161.679C224.896 161.419 224.624 161.123 224.407 160.791C224.209 160.444 224.063 160.094 223.968 159.742C223.875 159.374 223.844 159.055 223.875 158.786C223.901 158.567 223.943 158.427 224.001 158.366C224.076 158.307 224.163 158.291 224.262 158.32C224.38 158.334 224.52 158.376 224.682 158.446C224.846 158.499 225.038 158.538 225.256 158.564C225.962 158.647 226.773 158.494 227.687 158.107C228.602 157.72 229.481 157.193 230.327 156.525C231.172 155.857 231.9 155.098 232.51 154.25C233.138 153.403 233.502 152.551 233.602 151.693C233.705 150.819 233.567 150.104 233.189 149.549C232.827 148.995 232.134 148.658 231.108 148.538C230.47 148.463 229.757 148.508 228.971 148.671C228.204 148.82 227.416 149.069 226.609 149.417C225.801 149.766 225.007 150.21 224.228 150.749C223.45 151.288 222.747 151.905 222.12 152.598C221.496 153.275 220.964 154.031 220.525 154.866C220.105 155.686 219.84 156.566 219.73 157.508C219.614 158.5 219.686 159.412 219.947 160.243C220.226 161.06 220.622 161.822 221.136 162.53C221.667 163.239 222.278 163.908 222.972 164.534C223.666 165.161 224.376 165.789 225.103 166.42C225.832 167.034 226.542 167.671 227.231 168.331C227.923 168.974 228.522 169.675 229.03 170.433C229.557 171.177 229.947 171.989 230.202 172.871C230.475 173.738 230.549 174.71 230.423 175.786C230.301 176.828 229.983 177.796 229.469 178.691C228.974 179.57 228.342 180.314 227.572 180.923C226.802 181.531 225.922 181.982 224.934 182.275C223.945 182.569 222.912 182.652 221.836 182.526ZM248.386 185.635C247.294 185.507 246.4 185.275 245.707 184.938C245.012 184.618 244.472 184.282 244.087 183.93C243.702 183.578 243.441 183.258 243.304 182.97C243.17 182.664 243.107 182.469 243.117 182.385C243.153 182.083 243.257 181.771 243.431 181.451C243.607 181.113 243.813 180.813 244.048 180.551C244.285 180.272 244.533 180.046 244.792 179.872C245.051 179.697 245.273 179.621 245.458 179.643C245.693 179.67 245.869 179.844 245.985 180.165C246.015 180.202 246.089 180.296 246.207 180.446C246.326 180.597 246.494 180.761 246.712 180.94C246.949 181.104 247.236 181.266 247.576 181.425C247.932 181.586 248.354 181.695 248.841 181.752C249.9 181.876 250.804 181.658 251.551 181.098C252.3 180.521 252.74 179.677 252.87 178.568C252.96 177.794 252.856 177.083 252.557 176.435C252.275 175.788 251.87 175.17 251.343 174.58C250.815 173.99 250.202 173.407 249.502 172.831C248.805 172.238 248.093 171.626 247.365 170.995C246.638 170.365 245.933 169.694 245.249 168.984C244.565 168.273 243.977 167.48 243.483 166.604C242.989 165.728 242.616 164.764 242.364 163.712C242.131 162.645 242.091 161.456 242.245 160.145C242.377 159.018 242.703 157.906 243.224 156.808C243.744 155.71 244.401 154.688 245.193 153.741C246.005 152.779 246.925 151.907 247.954 151.124C248.985 150.325 250.077 149.66 251.23 149.13C252.384 148.584 253.563 148.194 254.767 147.96C255.989 147.711 257.188 147.655 258.365 147.793C259.374 147.911 260.263 148.177 261.033 148.591C261.802 149.005 262.43 149.539 262.916 150.192C263.404 150.829 263.751 151.577 263.957 152.436C264.165 153.278 264.21 154.204 264.092 155.213C263.98 156.171 263.701 157.093 263.257 157.978C262.812 158.863 262.264 159.685 261.613 160.444C260.962 161.203 260.242 161.894 259.453 162.518C258.683 163.126 257.898 163.648 257.097 164.082C256.315 164.502 255.562 164.814 254.84 165.019C254.117 165.225 253.495 165.297 252.974 165.236C252.52 165.182 252.12 165.033 251.774 164.788C251.446 164.528 251.174 164.232 250.957 163.9C250.759 163.553 250.613 163.204 250.518 162.852C250.424 162.483 250.394 162.164 250.425 161.895C250.451 161.676 250.493 161.536 250.551 161.475C250.626 161.416 250.713 161.4 250.812 161.429C250.93 161.443 251.07 161.485 251.232 161.555C251.396 161.608 251.587 161.648 251.806 161.673C252.512 161.756 253.322 161.604 254.237 161.216C255.151 160.829 256.031 160.302 256.876 159.634C257.722 158.966 258.449 158.208 259.06 157.359C259.688 156.512 260.052 155.66 260.152 154.802C260.254 153.928 260.117 153.213 259.738 152.658C259.377 152.104 258.684 151.767 257.658 151.647C257.019 151.572 256.307 151.617 255.521 151.78C254.754 151.929 253.966 152.178 253.158 152.526C252.351 152.875 251.557 153.319 250.778 153.858C249.999 154.397 249.297 155.014 248.67 155.707C248.045 156.384 247.514 157.14 247.075 157.975C246.655 158.795 246.39 159.676 246.28 160.617C246.164 161.609 246.236 162.521 246.497 163.352C246.776 164.169 247.172 164.931 247.686 165.639C248.216 166.349 248.828 167.017 249.522 167.643C250.215 168.27 250.926 168.898 251.653 169.529C252.382 170.143 253.091 170.78 253.781 171.44C254.473 172.083 255.072 172.784 255.58 173.542C256.106 174.286 256.497 175.098 256.752 175.98C257.025 176.847 257.099 177.819 256.973 178.895C256.851 179.937 256.533 180.906 256.019 181.8C255.524 182.679 254.892 183.423 254.122 184.032C253.352 184.64 252.472 185.091 251.483 185.384C250.495 185.678 249.462 185.761 248.386 185.635Z" fill="white"/>
<path d="M158.504 144.714L153.587 145.618L153.618 145.787L153.66 145.954L158.504 144.714ZM161.928 144.297L158.227 147.66L158.285 147.723L158.345 147.784L161.928 144.297ZM162.235 172.019L159.641 176.293L159.692 176.324L159.744 176.354L162.235 172.019ZM166.247 172.463L164.81 167.674L164.786 167.681L164.762 167.689L166.247 172.463ZM168.233 162.93L164.819 166.583L164.841 166.604L164.864 166.625L168.233 162.93ZM166.154 161.69L164.385 166.366L164.442 166.388L164.499 166.408L166.154 161.69ZM163.347 160.773L159.025 163.287L159.078 163.378L159.135 163.467L163.347 160.773ZM162.934 159.063L157.936 159.224L157.937 159.244L157.938 159.263L162.934 159.063ZM163.327 157.447L159.518 154.209L159.484 154.249L159.45 154.29L163.327 157.447ZM167.301 156.916L168.628 161.736L168.683 161.721L168.738 161.704L167.301 156.916ZM171.1 154.599L174.779 157.985L174.799 157.964L174.819 157.942L171.1 154.599ZM172.569 152.317L177.108 154.415L177.113 154.403L177.119 154.391L172.569 152.317ZM173.239 146.158L168.344 147.177L168.355 147.229L168.367 147.281L173.239 146.158ZM171.974 143.428L167.982 146.438L167.998 146.461L168.016 146.483L171.974 143.428ZM169.412 141.287L166.961 145.645L166.989 145.661L167.017 145.676L169.412 141.287ZM156.069 142.588L152.715 138.88L152.698 138.895L152.682 138.91L156.069 142.588ZM153.586 146.106L158.158 148.13L158.162 148.123L158.165 148.115L153.586 146.106ZM152.343 153.451L147.375 154.016L147.382 154.079L147.391 154.142L152.343 153.451ZM152.774 155.444L148.028 157.017L148.038 157.049L148.049 157.08L152.774 155.444ZM153.608 157.05L149.686 160.151L151.526 162.479L154.452 161.979L153.608 157.05ZM153.931 158.878L149.45 156.66L149.415 156.732L149.381 156.804L153.931 158.878ZM153.144 160.14L156.954 163.379L156.984 163.343L157.014 163.307L153.144 160.14ZM152.102 160.964L154.061 165.565L154.142 165.53L154.221 165.493L152.102 160.964ZM151.032 160.711L147.248 163.979L147.385 164.138L147.536 164.285L151.032 160.711ZM150.217 159.593L146.076 162.395L150.217 159.593ZM149.184 157.504L144.468 159.166L144.489 159.224L144.511 159.282L149.184 157.504ZM148.445 154.426L143.503 155.184L143.504 155.193L143.506 155.202L148.445 154.426ZM150.338 143.936L154.758 146.275L154.761 146.268L154.764 146.262L150.338 143.936ZM154.106 139.265L150.982 135.361L150.97 135.371L150.958 135.38L154.106 139.265ZM171.041 137.643L168.89 142.157L168.918 142.171L168.947 142.184L171.041 137.643ZM174.857 140.417L171.111 143.728L174.857 140.417ZM177.021 144.428L172.21 145.789L172.219 145.823L172.229 145.856L177.021 144.428ZM174.652 156.14L170.843 152.902L170.822 152.926L170.801 152.951L174.652 156.14ZM172.25 158.313L175.033 162.467L175.04 162.462L172.25 158.313ZM169.418 159.797L167.585 155.144L156.155 159.647L167.481 164.406L169.418 159.797ZM171.421 161.028L168.182 164.838L168.217 164.867L168.251 164.895L171.421 161.028ZM173.835 165.299L168.929 166.262L168.931 166.276L168.934 166.289L173.835 165.299ZM172.79 171.823L168.459 169.324L168.443 169.353L168.427 169.381L172.79 171.823ZM167.477 175.93L166.198 171.097L166.154 171.108L166.109 171.121L167.477 175.93ZM159.697 174.917L162.31 170.654L162.283 170.638L162.257 170.622L159.697 174.917ZM157.249 172.457L152.87 174.871L152.881 174.889L152.891 174.908L157.249 172.457ZM156.205 168.935L151.223 169.363L151.226 169.4L151.23 169.438L156.205 168.935ZM163.472 146.369C163.541 145.787 163.649 144.649 163.348 143.474L153.66 145.954C153.6 145.717 153.574 145.528 153.563 145.411C153.55 145.291 153.549 145.205 153.549 145.163C153.548 145.087 153.554 145.092 153.54 145.206L163.472 146.369ZM163.422 143.809C163.45 143.962 163.488 144.267 163.44 144.678L153.508 143.515C153.417 144.296 153.475 145.013 153.587 145.618L163.422 143.809ZM163.44 144.678C163.345 145.49 163.017 146.278 162.485 146.929C161.986 147.539 161.44 147.868 161.09 148.033L156.813 138.994C155.426 139.65 153.791 141.1 153.508 143.515L163.44 144.678ZM161.09 148.033C160.4 148.36 159.762 148.387 159.358 148.34L160.521 138.408C159.378 138.274 158.081 138.394 156.813 138.994L161.09 148.033ZM159.358 148.34C159.352 148.339 159.203 148.321 158.974 148.215C158.732 148.102 158.464 147.92 158.227 147.66L165.628 140.934C164.166 139.325 162.278 138.613 160.521 138.408L159.358 148.34ZM158.345 147.784C158.168 147.602 157.918 147.278 157.745 146.8C157.568 146.309 157.532 145.826 157.579 145.424L167.512 146.587C167.778 144.313 166.946 142.283 165.51 140.809L158.345 147.784ZM157.579 145.424L155.338 164.564L165.27 165.727L167.512 146.587L157.579 145.424ZM155.338 164.564C155.164 166.051 155.111 167.522 155.265 168.909L165.204 167.809C165.159 167.4 165.153 166.729 165.27 165.727L155.338 164.564ZM155.265 168.909C155.417 170.279 155.781 171.721 156.533 173.059L165.25 168.158C165.29 168.229 165.289 168.25 165.273 168.193C165.256 168.136 165.227 168.013 165.204 167.809L155.265 168.909ZM156.533 173.059C157.267 174.364 158.304 175.482 159.641 176.293L164.828 167.744C164.925 167.803 165.02 167.878 165.101 167.964C165.182 168.048 165.228 168.12 165.25 168.158L156.533 173.059ZM159.744 176.354C160.987 177.068 162.317 177.446 163.626 177.599L164.789 167.667C164.686 167.655 164.638 167.641 164.634 167.639C164.631 167.638 164.666 167.649 164.725 167.683L159.744 176.354ZM163.626 177.599C164.98 177.758 166.369 177.662 167.733 177.237L164.762 167.689C164.779 167.683 164.796 167.679 164.811 167.676C164.827 167.673 164.838 167.672 164.844 167.671C164.85 167.671 164.85 167.671 164.841 167.671C164.833 167.671 164.816 167.67 164.789 167.667L163.626 177.599ZM167.685 177.252C168.948 176.873 170.123 176.26 171.162 175.408L164.82 167.677C164.822 167.675 164.825 167.673 164.829 167.67C164.833 167.667 164.837 167.665 164.839 167.664C164.842 167.663 164.841 167.663 164.838 167.664C164.834 167.666 164.825 167.67 164.81 167.674L167.685 177.252ZM171.162 175.408C172.202 174.555 173.03 173.523 173.651 172.366L164.84 167.638C164.829 167.657 164.822 167.669 164.817 167.676C164.812 167.684 164.809 167.687 164.809 167.687C164.809 167.687 164.81 167.686 164.813 167.683C164.815 167.681 164.818 167.678 164.82 167.677L171.162 175.408ZM173.651 172.366C174.304 171.15 174.68 169.852 174.835 168.535L164.903 167.372C164.88 167.567 164.841 167.636 164.84 167.638L173.651 172.366ZM174.835 168.535C175.035 166.828 174.954 164.981 174.275 163.201L164.931 166.764C164.878 166.625 164.974 166.758 164.903 167.372L174.835 168.535ZM174.275 163.201C173.706 161.709 172.826 160.351 171.601 159.235L164.864 166.625C164.864 166.625 164.864 166.625 164.863 166.624C164.863 166.624 164.863 166.623 164.862 166.623C164.862 166.622 164.863 166.624 164.867 166.63C164.874 166.64 164.899 166.68 164.931 166.764L174.275 163.201ZM171.647 159.277C170.525 158.229 169.223 157.467 167.809 156.971L164.499 166.408C164.69 166.475 164.773 166.54 164.819 166.583L171.647 159.277ZM167.923 157.013C166.769 156.576 165.575 156.281 164.35 156.137L163.187 166.069C163.576 166.115 163.973 166.21 164.385 166.366L167.923 157.013ZM164.35 156.137C166.377 156.375 167.348 157.749 167.559 158.078L159.135 163.467C159.605 164.202 160.858 165.797 163.187 166.069L164.35 156.137ZM167.669 158.258C167.842 158.556 167.908 158.792 167.931 158.893L158.178 161.102C158.336 161.798 158.597 162.55 159.025 163.287L167.669 158.258ZM167.931 158.893C167.935 158.911 167.931 158.904 167.93 158.863L157.938 159.263C157.962 159.872 158.039 160.488 158.178 161.102L167.931 158.893ZM167.931 158.901C167.932 158.925 167.934 159.065 167.882 159.285L158.154 156.969C157.967 157.752 157.913 158.516 157.936 159.224L167.931 158.901ZM167.882 159.285C167.827 159.515 167.665 160.039 167.205 160.604L159.45 154.29C158.711 155.198 158.343 156.175 158.154 156.969L167.882 159.285ZM167.137 160.686C166.696 161.204 166.08 161.672 165.307 161.952C164.556 162.223 163.876 162.239 163.387 162.182L164.55 152.249C162.834 152.048 160.891 152.593 159.518 154.209L167.137 160.686ZM163.387 162.182C164.175 162.274 164.979 162.271 165.739 162.227L165.158 152.244C164.965 152.255 164.816 152.258 164.708 152.256C164.598 152.255 164.549 152.249 164.55 152.249L163.387 162.182ZM165.739 162.227C166.722 162.17 167.689 161.995 168.628 161.736L165.974 152.095C165.61 152.195 165.342 152.233 165.158 152.244L165.739 162.227ZM168.738 161.704C169.772 161.394 170.761 160.964 171.702 160.438L166.83 151.706C166.458 151.913 166.137 152.045 165.864 152.127L168.738 161.704ZM171.702 160.438C172.871 159.786 173.893 158.948 174.779 157.985L167.421 151.214C167.174 151.482 166.973 151.625 166.83 151.706L171.702 160.438ZM174.819 157.942C175.767 156.886 176.518 155.69 177.108 154.415L168.03 150.22C167.798 150.723 167.569 151.048 167.382 151.257L174.819 157.942ZM177.119 154.391C177.794 152.908 178.182 151.307 178.373 149.674L168.441 148.511C168.34 149.366 168.169 149.914 168.019 150.244L177.119 154.391ZM178.373 149.674C178.555 148.115 178.463 146.561 178.111 145.036L168.367 147.281C168.467 147.717 168.486 148.119 168.441 148.511L178.373 149.674ZM178.134 145.139C177.769 143.385 177.019 141.782 175.932 140.373L168.016 146.483C168.201 146.723 168.295 146.94 168.344 147.177L178.134 145.139ZM175.966 140.418C174.84 138.925 173.406 137.771 171.808 136.899L167.017 145.676C167.565 145.976 167.839 146.249 167.982 146.438L175.966 140.418ZM171.864 136.93C170.073 135.922 168.069 135.38 166.016 135.14L164.853 145.072C165.961 145.202 166.609 145.447 166.961 145.645L171.864 136.93ZM166.016 135.14C163.455 134.84 160.931 134.943 158.567 135.651L161.436 145.231C162.181 145.008 163.279 144.888 164.853 145.072L166.016 135.14ZM158.567 135.651C156.391 136.303 154.4 137.356 152.715 138.88L159.423 146.296C159.873 145.889 160.503 145.51 161.436 145.231L158.567 135.651ZM152.682 138.91C151.096 140.371 149.874 142.121 149.007 144.098L158.165 148.115C158.507 147.336 158.941 146.741 159.456 146.266L152.682 138.91ZM149.014 144.082C148.195 145.932 147.678 147.893 147.439 149.937L157.371 151.1C157.502 149.983 157.772 149.002 158.158 148.13L149.014 144.082ZM147.439 149.937C147.277 151.319 147.225 152.704 147.375 154.016L157.311 152.886C157.275 152.574 157.265 152.004 157.371 151.1L147.439 149.937ZM147.391 154.142C147.527 155.121 147.725 156.104 148.028 157.017L157.52 153.871C157.47 153.721 157.381 153.375 157.295 152.76L147.391 154.142ZM148.049 157.08C148.28 157.748 148.624 158.608 149.154 159.396L157.452 153.815C157.482 153.86 157.506 153.898 157.524 153.929C157.543 153.96 157.557 153.985 157.567 154.003C157.586 154.039 157.594 154.056 157.59 154.049C157.587 154.043 157.577 154.02 157.561 153.978C157.545 153.937 157.524 153.881 157.499 153.809L148.049 157.08ZM149.154 159.396C149.256 159.548 149.503 159.919 149.686 160.151L157.531 153.95C157.56 153.986 157.582 154.016 157.596 154.034C157.61 154.053 157.621 154.068 157.629 154.078C157.643 154.097 157.652 154.11 157.653 154.112C157.655 154.115 157.649 154.106 157.63 154.078C157.593 154.025 157.535 153.939 157.452 153.815L149.154 159.396ZM154.452 161.979C154.169 162.027 153.469 162.113 152.588 161.858C151.57 161.563 150.571 160.88 149.925 159.812L158.479 154.632C156.77 151.81 153.798 151.945 152.765 152.122L154.452 161.979ZM149.925 159.812C149.29 158.764 149.283 157.769 149.341 157.266L159.274 158.43C159.392 157.422 159.314 156.011 158.479 154.632L149.925 159.812ZM149.341 157.266C149.368 157.039 149.408 156.867 149.435 156.767C149.462 156.663 149.486 156.594 149.496 156.566C149.515 156.516 149.509 156.541 149.45 156.66L158.412 161.096C158.67 160.576 159.139 159.577 159.274 158.43L149.341 157.266ZM149.381 156.804C149.355 156.861 149.323 156.915 149.275 156.974L157.014 163.307C157.602 162.588 158.094 161.8 158.481 160.951L149.381 156.804ZM149.335 156.902C149.406 156.819 149.612 156.609 149.983 156.436L154.221 165.493C155.349 164.965 156.25 164.206 156.954 163.379L149.335 156.902ZM150.143 156.364C150.816 156.078 151.722 155.923 152.703 156.156C153.628 156.374 154.229 156.844 154.529 157.137L147.536 164.285C148.172 164.908 149.119 165.584 150.401 165.887C151.739 166.203 153.012 166.011 154.061 165.565L150.143 156.364ZM154.817 157.443C154.856 157.489 154.835 157.468 154.734 157.33C154.643 157.205 154.519 157.029 154.358 156.791L146.076 162.395C146.443 162.937 146.857 163.527 147.248 163.979L154.817 157.443ZM154.358 156.791C154.28 156.675 154.097 156.357 153.857 155.725L144.511 159.282C144.922 160.363 145.428 161.438 146.076 162.395L154.358 156.791ZM153.9 155.842C153.718 155.328 153.536 154.612 153.384 153.65L143.506 155.202C143.726 156.602 144.035 157.937 144.468 159.166L153.9 155.842ZM153.387 153.668C153.286 153.011 153.264 152.118 153.401 150.942L143.469 149.779C143.253 151.628 143.236 153.446 143.503 155.184L153.387 153.668ZM153.401 150.942C153.624 149.04 154.104 147.511 154.758 146.275L145.919 141.598C144.603 144.085 143.814 146.839 143.469 149.779L153.401 150.942ZM154.764 146.262C155.461 144.936 156.298 143.924 157.254 143.15L150.958 135.38C148.864 137.077 147.189 139.181 145.912 141.611L154.764 146.262ZM157.23 143.169C158.211 142.384 159.348 141.805 160.699 141.442L158.105 131.784C155.479 132.489 153.086 133.678 150.982 135.361L157.23 143.169ZM160.699 141.442C162.003 141.091 163.505 140.977 165.258 141.182L166.421 131.25C163.567 130.916 160.777 131.066 158.105 131.784L160.699 141.442ZM165.258 141.182C166.753 141.358 167.942 141.706 168.89 142.157L173.192 133.13C171.104 132.135 168.826 131.532 166.421 131.25L165.258 141.182ZM168.947 142.184C169.923 142.634 170.611 143.163 171.111 143.728L178.603 137.105C177.087 135.39 175.23 134.069 173.134 133.103L168.947 142.184ZM171.111 143.728C171.599 144.281 171.97 144.943 172.21 145.789L181.832 143.067C181.203 140.846 180.132 138.834 178.603 137.105L171.111 143.728ZM172.229 145.856C172.458 146.626 172.56 147.606 172.412 148.873L182.344 150.036C182.625 147.639 182.488 145.268 181.812 143L172.229 145.856ZM172.412 148.873C172.292 149.896 172.077 150.678 171.824 151.27L181.025 155.188C181.713 153.573 182.133 151.838 182.344 150.036L172.412 148.873ZM171.824 151.27C171.534 151.952 171.199 152.483 170.843 152.902L178.461 159.379C179.528 158.124 180.375 156.713 181.025 155.188L171.824 151.27ZM170.801 152.951C170.413 153.42 169.97 153.821 169.46 154.164L175.04 162.462C176.344 161.586 177.502 160.538 178.503 159.329L170.801 152.951ZM169.467 154.159C168.879 154.553 168.254 154.881 167.585 155.144L171.25 164.449C172.583 163.924 173.846 163.263 175.033 162.467L169.467 154.159ZM167.481 164.406C167.739 164.515 167.968 164.655 168.182 164.838L174.66 157.219C173.665 156.373 172.558 155.693 171.355 155.187L167.481 164.406ZM168.251 164.895C168.368 164.991 168.49 165.124 168.615 165.339L177.279 160.346C176.582 159.136 175.687 158.06 174.591 157.161L168.251 164.895ZM168.615 165.339C168.714 165.513 168.838 165.8 168.929 166.262L178.742 164.336C178.469 162.949 178.001 161.599 177.279 160.346L168.615 165.339ZM168.934 166.289C168.994 166.586 169.03 167.053 168.949 167.743L178.881 168.906C179.061 167.377 179.043 165.827 178.736 164.308L168.934 166.289ZM168.949 167.743C168.87 168.422 168.689 168.926 168.459 169.324L177.121 174.322C178.088 172.645 178.658 170.817 178.881 168.906L168.949 167.743ZM168.427 169.381C168.158 169.862 167.851 170.206 167.509 170.471L173.627 178.381C175.084 177.255 176.258 175.863 177.153 174.265L168.427 169.381ZM167.509 170.471C167.167 170.735 166.75 170.951 166.198 171.097L168.756 180.764C170.526 180.296 172.169 179.508 173.627 178.381L167.509 170.471ZM166.109 171.121C165.646 171.253 165.1 171.308 164.423 171.229L163.26 181.161C165.139 181.381 167.017 181.26 168.845 180.74L166.109 171.121ZM164.423 171.229C163.196 171.085 162.573 170.816 162.31 170.654L157.084 179.18C158.951 180.324 161.092 180.907 163.26 181.161L164.423 171.229ZM162.257 170.622C161.878 170.396 161.71 170.189 161.608 170.007L152.891 174.908C153.917 176.733 155.38 178.165 157.136 179.212L162.257 170.622ZM161.628 170.044C161.435 169.694 161.256 169.187 161.179 168.432L151.23 169.438C151.422 171.339 151.939 173.18 152.87 174.871L161.628 170.044ZM161.186 168.507C161.105 167.557 161.123 166.431 161.278 165.107L151.346 163.943C151.127 165.814 151.074 167.627 151.223 169.363L161.186 168.507ZM161.278 165.107L163.472 146.369L153.54 145.206L151.346 163.943L161.278 165.107ZM202.428 160.569L207.39 161.185L207.392 161.168L207.394 161.15L202.428 160.569ZM202.646 157.399L207.644 157.522L207.756 152.963L203.227 152.433L202.646 157.399ZM196.371 154.875L192.754 158.326L192.774 158.347L192.795 158.369L196.371 154.875ZM194.971 152.64L190.269 154.341L190.277 154.361L190.284 154.381L194.971 152.64ZM195.231 148.018L190.814 145.676L190.796 145.71L190.779 145.744L195.231 148.018ZM196.373 146.566L193.124 142.766L193.118 142.771L196.373 146.566ZM197.985 145.682L199.457 150.46L199.515 150.442L199.573 150.423L197.985 145.682ZM202.408 146.327L199.744 150.559L199.763 150.57L199.781 150.582L202.408 146.327ZM204.232 147.998L200.223 150.985L200.244 151.013L200.265 151.041L204.232 147.998ZM205.475 150.266L200.802 152.044L200.81 152.064L200.817 152.084L205.475 150.266ZM206.236 152.937L201.324 153.873L202.478 159.926L208.164 157.55L206.236 152.937ZM207.849 151.822L211.204 155.53L211.95 154.855L212.376 153.944L207.849 151.822ZM209.059 151.529L205.289 154.812L205.444 154.99L205.615 155.153L209.059 151.529ZM209.838 153.179L204.914 154.049L204.92 154.085L204.927 154.12L209.838 153.179ZM208.86 155.851L211.832 159.872L211.865 159.848L211.898 159.823L208.86 155.851ZM206.613 156.918L205.18 152.127L201.53 153.219L201.615 157.028L206.613 156.918ZM206.592 159.063L201.597 158.845L201.594 158.905L201.593 158.966L206.592 159.063ZM201.17 175.019L204.891 178.359L204.899 178.35L204.907 178.34L201.17 175.019ZM197.008 178.034L195.176 173.382L195.164 173.386L195.152 173.391L197.008 178.034ZM187.701 176.739L190.822 172.833L190.805 172.82L190.789 172.806L187.701 176.739ZM184.517 172.711L180 174.854L180.008 174.872L180.017 174.889L184.517 172.711ZM182.974 167.11L178.008 167.693L178.01 167.702L182.974 167.11ZM184.665 152.89L179.964 151.189L179.959 151.202L179.954 151.215L184.665 152.89ZM187.277 147.393L183.084 144.67L183.073 144.688L183.061 144.705L187.277 147.393ZM190.316 143.71L186.958 140.006L190.316 143.71ZM193.187 141.464L190.56 137.209L190.538 137.223L190.517 137.237L193.187 141.464ZM195.389 140.341L193.801 135.6L193.773 135.61L193.746 135.619L195.389 140.341ZM196.4 140L195.096 135.173L194.895 135.227L194.7 135.298L196.4 140ZM196.661 139.954L196.419 134.96L196.338 134.963L196.258 134.97L196.661 139.954ZM197.716 140.333L194.065 143.748L194.144 143.833L194.227 143.914L197.716 140.333ZM198.194 141.053L193.581 142.981L193.608 143.046L193.637 143.11L198.194 141.053ZM198.215 143.715L202.48 146.324L202.516 146.265L202.55 146.205L198.215 143.715ZM197.401 143.9L200.142 139.719L197.936 138.273L195.497 139.277L197.401 143.9ZM196.079 144.487L193.98 139.949L193.947 139.964L193.914 139.98L196.079 144.487ZM194.258 145.629L197.185 149.682L197.216 149.661L197.246 149.638L194.258 145.629ZM190.111 150.486L194.483 152.911L194.489 152.901L194.494 152.891L190.111 150.486ZM188.364 154.704L193.132 156.211L193.134 156.202L188.364 154.704ZM188.374 170.989L183.872 173.165L183.88 173.181L183.888 173.196L188.374 170.989ZM190.484 173.716L187.419 177.667L187.446 177.688L187.474 177.709L190.484 173.716ZM196.209 174.157L193.759 169.798L193.74 169.809L193.721 169.82L196.209 174.157ZM198.923 171.509L194.784 168.704L194.777 168.714L194.77 168.724L198.923 171.509ZM201.067 166.954L205.811 168.531L205.814 168.523L201.067 166.954ZM202.535 153.756L201.954 158.722L208.183 159.451L207.506 153.216L202.535 153.756ZM201.718 150.695L197.36 153.145L197.387 153.194L197.415 153.242L201.718 150.695ZM200.91 149.731L197.626 153.501L197.739 153.599L197.857 153.69L200.91 149.731ZM198.517 151.394L193.69 152.698L193.718 152.8L193.75 152.901L198.517 151.394ZM199.089 152.406L195.256 155.618L195.348 155.727L195.445 155.83L199.089 152.406ZM200.22 153.229L197.915 157.666L197.982 157.701L198.051 157.734L200.22 153.229ZM207.394 161.15C207.531 159.977 207.614 158.766 207.644 157.522L197.647 157.276C197.623 158.241 197.561 159.144 197.462 159.987L207.394 161.15ZM203.227 152.433L202.244 152.318L201.081 162.25L202.064 162.365L203.227 152.433ZM202.244 152.318C201.638 152.247 201.156 152.105 200.762 151.926L196.616 161.025C198.034 161.672 199.534 162.069 201.081 162.25L202.244 152.318ZM200.762 151.926C200.368 151.746 200.119 151.556 199.948 151.381L192.795 158.369C193.902 159.502 195.198 160.379 196.616 161.025L200.762 151.926ZM199.989 151.423C199.831 151.258 199.731 151.094 199.659 150.9L190.284 154.381C190.834 155.861 191.667 157.187 192.754 158.326L199.989 151.423ZM199.673 150.939C199.654 150.885 199.613 150.751 199.648 150.452L189.716 149.289C189.519 150.974 189.671 152.686 190.269 154.341L199.673 150.939ZM199.648 150.452C199.656 150.386 199.666 150.345 199.672 150.324C199.678 150.304 199.683 150.295 199.684 150.292L190.779 145.744C190.202 146.872 189.859 148.069 189.716 149.289L199.648 150.452ZM199.649 150.36C199.66 150.339 199.668 150.325 199.673 150.318C199.678 150.311 199.679 150.31 199.677 150.313C199.674 150.316 199.669 150.322 199.66 150.332C199.651 150.341 199.64 150.351 199.627 150.362L193.118 142.771C192.146 143.604 191.386 144.596 190.814 145.676L199.649 150.36ZM199.622 150.367C199.602 150.384 199.573 150.405 199.537 150.425C199.501 150.444 199.472 150.455 199.457 150.46L196.512 140.903C195.265 141.288 194.122 141.913 193.124 142.766L199.622 150.367ZM199.573 150.423C199.495 150.449 199.428 150.46 199.382 150.465C199.338 150.469 199.33 150.464 199.367 150.469L200.53 140.536C199.18 140.378 197.776 140.478 196.396 140.941L199.573 150.423ZM199.367 150.469C199.527 150.487 199.627 150.514 199.68 150.532C199.707 150.541 199.723 150.548 199.732 150.552C199.737 150.555 199.74 150.556 199.742 150.557C199.744 150.558 199.744 150.559 199.744 150.559L205.072 142.096C203.656 141.204 202.102 140.721 200.53 140.536L199.367 150.469ZM199.781 150.582C199.961 150.693 200.1 150.82 200.223 150.985L208.242 145.011C207.363 143.832 206.286 142.845 205.035 142.073L199.781 150.582ZM200.265 151.041C200.442 151.272 200.63 151.592 200.802 152.044L210.148 148.487C209.668 147.226 209.028 146.035 208.2 144.955L200.265 151.041ZM200.817 152.084C201.027 152.621 201.199 153.214 201.324 153.873L211.147 152C210.914 150.776 210.579 149.589 210.133 148.447L200.817 152.084ZM208.164 157.55C208.828 157.272 209.445 156.919 210.01 156.505L204.104 148.436C204.148 148.403 204.217 148.361 204.308 148.323L208.164 157.55ZM210.01 156.505C210.425 156.202 210.823 155.874 211.204 155.53L204.495 148.114C204.342 148.252 204.212 148.357 204.104 148.436L210.01 156.505ZM212.376 153.944C212.338 154.025 212.097 154.543 211.499 155.076C210.784 155.713 209.533 156.363 207.953 156.178L209.116 146.246C207.283 146.031 205.792 146.768 204.848 147.608C204.022 148.344 203.564 149.182 203.322 149.7L212.376 153.944ZM207.953 156.178C206.523 156.01 205.649 155.226 205.289 154.812L212.83 148.246C212.139 147.452 210.915 146.456 209.116 146.246L207.953 156.178ZM205.615 155.153C205.253 154.809 205.083 154.494 205.021 154.363L214.06 150.085C213.725 149.378 213.234 148.598 212.504 147.905L205.615 155.153ZM205.021 154.363C204.948 154.208 204.922 154.094 204.914 154.049L214.761 152.309C214.63 151.569 214.406 150.818 214.06 150.085L205.021 154.363ZM204.927 154.12C204.889 153.923 204.89 153.751 204.905 153.624L214.837 154.787C214.934 153.955 214.913 153.098 214.748 152.239L204.927 154.12ZM204.905 153.624C204.952 153.222 205.09 152.824 205.301 152.479C205.504 152.15 205.717 151.961 205.822 151.88L211.898 159.823C213.371 158.696 214.577 157.003 214.837 154.787L204.905 153.624ZM205.888 151.831C205.861 151.851 205.668 151.981 205.18 152.127L208.046 161.708C209.36 161.315 210.665 160.735 211.832 159.872L205.888 151.831ZM201.615 157.028C201.628 157.659 201.622 158.265 201.597 158.845L211.587 159.28C211.623 158.47 211.631 157.645 211.612 156.807L201.615 157.028ZM201.593 158.966C201.582 159.519 201.549 160.016 201.497 160.46L211.429 161.623C211.522 160.823 211.575 160.001 211.591 159.159L201.593 158.966ZM201.497 160.46C201.151 163.409 200.576 165.735 199.852 167.524L209.122 171.276C210.268 168.443 211.01 165.197 211.429 161.623L201.497 160.46ZM199.852 167.524C199.071 169.454 198.235 170.794 197.433 171.697L204.907 178.34C206.657 176.372 208.032 173.966 209.122 171.276L199.852 167.524ZM197.45 171.678C196.601 172.624 195.833 173.122 195.176 173.382L198.841 182.686C201.184 181.763 203.192 180.251 204.891 178.359L197.45 171.678ZM195.152 173.391C194.402 173.691 193.739 173.767 193.094 173.692L191.931 183.624C194.312 183.902 196.646 183.563 198.864 182.677L195.152 173.391ZM193.094 173.692C192.027 173.567 191.332 173.24 190.822 172.833L184.58 180.646C186.719 182.355 189.232 183.308 191.931 183.624L193.094 173.692ZM190.789 172.806C190.109 172.273 189.51 171.549 189.017 170.532L180.017 174.889C181.116 177.16 182.64 179.123 184.613 180.672L190.789 172.806ZM189.034 170.567C188.521 169.485 188.134 168.156 187.939 166.519L178.01 167.702C178.313 170.248 178.955 172.652 180 174.854L189.034 170.567ZM187.94 166.528C187.742 164.84 187.745 163.027 187.974 161.075L178.042 159.912C177.731 162.566 177.712 165.164 178.008 167.693L187.94 166.528ZM187.974 161.075C188.285 158.42 188.77 156.269 189.376 154.566L179.954 151.215C179.036 153.798 178.416 156.716 178.042 159.912L187.974 161.075ZM189.367 154.592C190.056 152.687 190.777 151.204 191.494 150.081L183.061 144.705C181.857 146.595 180.836 148.777 179.964 151.189L189.367 154.592ZM191.471 150.116C192.272 148.882 193.017 148.01 193.675 147.414L186.958 140.006C185.518 141.311 184.237 142.895 183.084 144.67L191.471 150.116ZM193.675 147.414C194.584 146.589 195.309 146.038 195.857 145.691L190.517 137.237C189.335 137.983 188.146 138.929 186.958 140.006L193.675 147.414ZM195.813 145.719C196.562 145.257 196.942 145.095 197.032 145.064L193.746 135.619C192.663 135.996 191.576 136.583 190.56 137.209L195.813 145.719ZM196.977 145.082C197.535 144.895 197.957 144.754 198.101 144.702L194.7 135.298C194.729 135.287 194.736 135.285 194.679 135.305C194.637 135.319 194.575 135.34 194.494 135.368C194.331 135.422 194.101 135.5 193.801 135.6L196.977 145.082ZM197.705 144.827C197.514 144.878 197.3 144.918 197.065 144.937L196.258 134.97C195.851 135.003 195.462 135.074 195.096 135.173L197.705 144.827ZM196.904 144.948C196.695 144.958 196.527 144.946 196.411 144.933L197.574 135.001C197.222 134.96 196.834 134.939 196.419 134.96L196.904 144.948ZM196.411 144.933C196.008 144.886 195.568 144.766 195.132 144.546C194.696 144.325 194.34 144.043 194.065 143.748L201.368 136.917C200.365 135.845 199.036 135.172 197.574 135.001L196.411 144.933ZM194.227 143.914C193.89 143.585 193.69 143.242 193.581 142.981L202.808 139.126C202.459 138.292 201.941 137.468 201.205 136.751L194.227 143.914ZM193.637 143.11C193.542 142.9 193.508 142.736 193.496 142.654L203.398 141.251C203.293 140.51 203.09 139.747 202.752 138.997L193.637 143.11ZM193.496 142.654C193.492 142.622 193.477 142.494 193.501 142.293L203.433 143.456C203.523 142.684 203.495 141.941 203.398 141.251L193.496 142.654ZM193.501 142.293C193.517 142.157 193.583 141.74 193.88 141.224L202.55 146.205C203.104 145.242 203.338 144.265 203.433 143.456L193.501 142.293ZM193.95 141.105C194.279 140.567 194.855 139.907 195.766 139.456C196.684 139.001 197.581 138.938 198.254 139.017L197.091 148.949C197.999 149.056 199.104 148.962 200.203 148.417C201.295 147.877 202.025 147.069 202.48 146.324L193.95 141.105ZM198.254 139.017C198.422 139.037 198.674 139.078 198.977 139.17C199.277 139.262 199.693 139.424 200.142 139.719L194.66 148.082C195.637 148.723 196.594 148.891 197.091 148.949L198.254 139.017ZM195.497 139.277C195.078 139.45 194.563 139.68 193.98 139.949L198.179 149.025C198.713 148.778 199.079 148.617 199.304 148.524L195.497 139.277ZM193.914 139.98C192.995 140.422 192.108 140.995 191.271 141.619L197.246 149.638C197.753 149.26 198.08 149.073 198.245 148.994L193.914 139.98ZM191.332 141.575C190.324 142.302 189.379 143.18 188.491 144.144L195.848 150.918C196.404 150.314 196.852 149.923 197.185 149.682L191.332 141.575ZM188.491 144.144C187.433 145.293 186.522 146.631 185.727 148.081L194.494 152.891C194.999 151.971 195.461 151.339 195.848 150.918L188.491 144.144ZM185.738 148.06C184.888 149.594 184.184 151.327 183.594 153.206L193.134 156.202C193.577 154.793 194.038 153.714 194.483 152.911L185.738 148.06ZM183.597 153.197C182.964 155.199 182.524 157.438 182.24 159.866L192.172 161.03C192.403 159.054 192.736 157.463 193.132 156.211L183.597 153.197ZM182.24 159.866C181.932 162.492 181.888 164.974 182.198 167.252L192.107 165.902C191.941 164.681 191.932 163.078 192.172 161.03L182.24 159.866ZM182.198 167.252C182.485 169.36 183.006 171.371 183.872 173.165L192.876 168.814C192.591 168.223 192.296 167.293 192.107 165.902L182.198 167.252ZM183.888 173.196C184.719 174.887 185.86 176.457 187.419 177.667L193.548 169.765C193.452 169.69 193.186 169.443 192.861 168.783L183.888 173.196ZM187.474 177.709C188.928 178.805 190.629 179.56 192.534 179.783L193.697 169.851C193.708 169.852 193.711 169.855 193.693 169.848C193.673 169.839 193.606 169.808 193.493 169.723L187.474 177.709ZM192.534 179.783C194.73 180.04 196.832 179.564 198.698 178.493L193.721 169.82C193.679 169.844 193.655 169.854 193.646 169.858C193.638 169.861 193.64 169.859 193.653 169.856C193.665 169.854 193.679 169.852 193.691 169.851C193.703 169.851 193.706 169.852 193.697 169.851L192.534 179.783ZM198.66 178.515C200.499 177.481 201.943 175.983 203.075 174.294L194.77 168.724C194.292 169.437 193.927 169.704 193.759 169.798L198.66 178.515ZM203.061 174.314C204.208 172.623 205.103 170.662 205.811 168.531L196.322 165.377C195.82 166.888 195.286 167.963 194.784 168.704L203.061 174.314ZM205.814 168.523C206.546 166.308 207.059 163.849 207.39 161.185L197.466 159.953C197.196 162.127 196.801 163.925 196.319 165.385L205.814 168.523ZM207.506 153.216C207.421 152.427 207.292 151.652 207.111 150.897L197.385 153.224C197.457 153.521 197.519 153.876 197.565 154.296L207.506 153.216ZM207.111 150.897C206.892 149.983 206.55 149.042 206.021 148.148L197.415 153.242C197.378 153.178 197.362 153.139 197.36 153.134C197.359 153.13 197.37 153.158 197.385 153.224L207.111 150.897ZM206.076 148.244C205.575 147.354 204.889 146.486 203.964 145.772L197.857 153.69C197.557 153.459 197.409 153.233 197.36 153.145L206.076 148.244ZM204.195 145.961C203.108 145.014 201.805 144.469 200.446 144.31L199.283 154.242C198.731 154.178 198.126 153.936 197.626 153.501L204.195 145.961ZM200.446 144.31C199.234 144.168 196.586 144.199 194.795 146.565L202.766 152.603C202.13 153.443 201.294 153.911 200.567 154.117C199.918 154.302 199.434 154.26 199.283 154.242L200.446 144.31ZM194.795 146.565C194.142 147.426 193.614 148.526 193.462 149.83L203.394 150.993C203.308 151.726 203.015 152.274 202.766 152.603L194.795 146.565ZM193.462 149.83C193.339 150.876 193.461 151.85 193.69 152.698L203.344 150.089C203.383 150.233 203.445 150.553 203.394 150.993L193.462 149.83ZM193.75 152.901C194.083 153.954 194.621 154.859 195.256 155.618L202.922 149.195C203.018 149.311 203.176 149.541 203.285 149.886L193.75 152.901ZM195.445 155.83C196.201 156.635 197.068 157.226 197.915 157.666L202.525 148.792C202.44 148.748 202.552 148.79 202.733 148.982L195.445 155.83ZM198.051 157.734C199.144 158.261 200.283 158.526 201.349 158.651L202.512 148.719C202.38 148.704 202.308 148.687 202.286 148.681C202.264 148.675 202.304 148.683 202.388 148.724L198.051 157.734ZM201.349 158.651L201.954 158.722L203.117 148.79L202.512 148.719L201.349 158.651ZM219.157 181.829L221.342 177.332L221.295 177.309L221.248 177.287L219.157 181.829ZM216.755 179.86L212.179 181.877L212.206 181.938L212.235 181.999L216.755 179.86ZM216.881 178.341L221.276 180.726L221.296 180.689L221.315 180.653L216.881 178.341ZM217.498 177.442L221.22 180.781L221.264 180.731L221.307 180.681L217.498 177.442ZM218.242 176.762L221.033 180.911L218.242 176.762ZM219.435 177.055L214.733 178.756L215.009 179.519L215.512 180.156L219.435 177.055ZM220.162 177.831L216.988 181.694L217.145 181.823L217.312 181.939L220.162 177.831ZM221.026 178.315L218.904 182.843L218.935 182.857L218.966 182.871L221.026 178.315ZM225.001 177.988L228 181.989L228.026 181.97L228.051 181.95L225.001 177.988ZM226.007 173.326L221.425 175.326L221.445 175.373L221.466 175.419L226.007 173.326ZM222.953 169.721L219.714 173.531L219.744 173.556L219.774 173.581L222.953 169.721ZM220.816 167.886L217.54 171.664L220.816 167.886ZM216.933 163.495L212.578 165.951L216.933 163.495ZM215.814 160.603L210.929 161.669L210.94 161.718L210.952 161.766L215.814 160.603ZM216.674 153.699L212.156 151.557L216.674 153.699ZM218.644 150.632L214.822 147.407L214.816 147.415L214.81 147.422L218.644 150.632ZM221.404 148.015L224.431 151.995L224.45 151.98L224.468 151.966L221.404 148.015ZM224.68 146.021L226.767 150.565L226.793 150.553L226.819 150.541L224.68 146.021ZM228.217 144.85L229.171 149.759L229.193 149.754L229.215 149.75L228.217 144.85ZM236.366 147.083L232.354 150.067L232.376 150.096L232.398 150.124L236.366 147.083ZM237.407 149.327L232.545 150.493L232.549 150.51L232.553 150.526L237.407 149.327ZM230.547 160.973L232.912 165.379L232.922 165.373L232.932 165.368L230.547 160.973ZM225.224 161.679L222.115 165.595L222.223 165.681L222.335 165.76L225.224 161.679ZM224.407 160.791L220.064 163.269L220.138 163.398L220.22 163.523L224.407 160.791ZM223.968 159.742L219.12 160.967L219.13 161.007L219.141 161.047L223.968 159.742ZM224.001 158.366L220.901 154.443L220.622 154.664L220.377 154.921L224.001 158.366ZM224.262 158.32L222.872 163.123L223.27 163.238L223.681 163.286L224.262 158.32ZM224.682 158.446L222.698 163.035L222.914 163.129L223.138 163.201L224.682 158.446ZM232.51 154.25L228.493 151.273L228.472 151.301L228.452 151.329L232.51 154.25ZM233.189 149.549L229.001 152.281L229.028 152.321L229.055 152.361L233.189 149.549ZM228.971 148.671L229.923 153.58L229.956 153.573L229.99 153.566L228.971 148.671ZM222.12 152.598L225.794 155.989L225.812 155.97L225.83 155.95L222.12 152.598ZM220.525 154.866L216.099 152.54L216.087 152.563L216.075 152.587L220.525 154.866ZM219.947 160.243L215.175 161.738L215.195 161.8L215.216 161.861L219.947 160.243ZM221.136 162.53L217.089 165.466L217.11 165.495L217.131 165.523L221.136 162.53ZM225.103 166.42L221.828 170.198L221.855 170.222L221.883 170.245L225.103 166.42ZM227.231 168.331L223.774 171.942L223.799 171.967L223.826 171.991L227.231 168.331ZM229.03 170.433L224.876 173.215L224.912 173.27L224.95 173.323L229.03 170.433ZM230.202 172.871L225.398 174.258L225.415 174.317L225.433 174.375L230.202 172.871ZM229.469 178.691L225.134 176.2L225.123 176.219L225.112 176.238L229.469 178.691ZM224.934 182.275L223.512 177.482L224.934 182.275ZM222.418 177.56C222.058 177.518 221.793 177.466 221.606 177.417C221.419 177.368 221.341 177.331 221.342 177.332L216.972 186.326C218.336 186.989 219.823 187.325 221.255 187.492L222.418 177.56ZM221.248 177.287C221.053 177.197 220.933 177.13 220.871 177.091C220.808 177.052 220.833 177.06 220.911 177.131L214.163 184.511C215.062 185.334 216.101 185.926 217.067 186.371L221.248 177.287ZM220.911 177.131C220.854 177.079 220.872 177.089 220.93 177.16C220.984 177.227 221.128 177.414 221.274 177.722L212.235 181.999C212.77 183.13 213.564 183.964 214.163 184.511L220.911 177.131ZM221.33 177.844C221.295 177.765 221.324 177.82 221.368 177.96C221.391 178.03 221.443 178.199 221.487 178.434C221.51 178.555 221.538 178.731 221.554 178.946C221.569 179.153 221.579 179.471 221.534 179.858L211.601 178.694C211.457 179.926 211.821 180.935 211.845 181.011C211.953 181.346 212.079 181.65 212.179 181.877L221.33 177.844ZM221.534 179.858C221.482 180.298 221.347 180.595 221.276 180.726L212.487 175.957C212.068 176.729 211.724 177.649 211.601 178.694L221.534 179.858ZM221.315 180.653C221.313 180.657 221.285 180.708 221.22 180.781L213.776 174.103C213.24 174.701 212.802 175.351 212.448 176.03L221.315 180.653ZM221.307 180.681C221.298 180.692 221.212 180.79 221.033 180.911L215.452 172.613C214.754 173.083 214.172 173.635 213.689 174.204L221.307 180.681ZM221.033 180.911C220.912 180.993 220.639 181.162 220.228 181.303C219.81 181.447 219.146 181.596 218.327 181.5L219.49 171.568C217.545 171.34 216.083 172.189 215.452 172.613L221.033 180.911ZM218.327 181.5C217.284 181.378 216.367 180.9 215.698 180.237C215.099 179.644 214.838 179.045 214.733 178.756L224.137 175.355C223.697 174.139 222.387 171.907 219.49 171.568L218.327 181.5ZM215.512 180.156C215.756 180.464 215.402 180.017 215.735 180.437L223.58 174.237C223.521 174.162 223.618 174.284 223.559 174.209C223.54 174.186 223.567 174.219 223.548 174.196C223.546 174.193 223.549 174.197 223.547 174.194C223.547 174.194 223.546 174.194 223.546 174.194C223.546 174.193 223.546 174.193 223.546 174.193C223.541 174.187 223.548 174.195 223.543 174.19C223.525 174.167 223.556 174.206 223.538 174.183C223.472 174.1 223.564 174.216 223.5 174.135C223.244 173.811 223.686 174.371 223.436 174.054C223.423 174.038 223.441 174.061 223.429 174.045C223.423 174.038 223.431 174.048 223.426 174.041C223.417 174.03 223.431 174.048 223.422 174.037C223.411 174.023 223.42 174.034 223.41 174.021C223.39 173.996 223.418 174.031 223.399 174.007C223.381 173.984 223.406 174.016 223.388 173.994C223.323 173.912 223.417 174.03 223.358 173.955L215.512 180.156ZM215.735 180.437C216.152 180.965 216.61 181.384 216.988 181.694L223.337 173.968C223.319 173.953 223.333 173.963 223.37 173.999C223.405 174.033 223.482 174.113 223.58 174.237L215.735 180.437ZM217.312 181.939C217.836 182.302 218.382 182.598 218.904 182.843L223.148 173.788C223.074 173.754 223.027 173.728 223.002 173.715C222.977 173.7 222.983 173.702 223.012 173.723L217.312 181.939ZM218.966 182.871C219.893 183.291 220.836 183.506 221.71 183.609L222.873 173.677C222.827 173.671 222.826 173.668 222.861 173.677C222.896 173.686 222.975 173.709 223.086 173.759L218.966 182.871ZM221.71 183.609C223.847 183.859 226.08 183.428 228 181.989L222.002 173.988C222.17 173.862 222.377 173.763 222.59 173.712C222.79 173.663 222.901 173.68 222.873 173.677L221.71 183.609ZM228.051 181.95C230.061 180.403 231.03 178.226 231.286 176.04L221.354 174.877C221.347 174.931 221.353 174.815 221.459 174.612C221.573 174.393 221.746 174.184 221.951 174.027L228.051 181.95ZM231.286 176.04C231.473 174.438 231.267 172.791 230.548 171.232L221.466 175.419C221.415 175.306 221.379 175.185 221.362 175.071C221.346 174.959 221.352 174.889 221.354 174.877L231.286 176.04ZM230.59 171.326C230.071 170.137 229.359 169.077 228.521 168.139L221.065 174.803C221.281 175.045 221.379 175.221 221.425 175.326L230.59 171.326ZM228.521 168.139C227.802 167.334 227 166.577 226.132 165.862L219.774 173.581C220.304 174.018 220.729 174.427 221.065 174.803L228.521 168.139ZM226.191 165.912C225.507 165.33 224.807 164.729 224.091 164.109L217.54 171.664C218.279 172.304 219.004 172.927 219.714 173.531L226.191 165.912ZM224.091 164.109C223.481 163.579 222.884 163.013 222.302 162.408L215.096 169.341C215.882 170.158 216.696 170.932 217.54 171.664L224.091 164.109ZM222.302 162.408C221.917 162.007 221.579 161.555 221.288 161.039L212.578 165.951C213.274 167.186 214.114 168.321 215.096 169.341L222.302 162.408ZM221.288 161.039C221.039 160.597 220.829 160.073 220.677 159.439L210.952 161.766C211.303 163.237 211.839 164.64 212.578 165.951L221.288 161.039ZM220.699 159.536C220.606 159.11 220.559 158.489 220.661 157.617L210.729 156.454C210.524 158.204 210.557 159.962 210.929 161.669L220.699 159.536ZM220.661 157.617C220.725 157.069 220.888 156.482 221.192 155.841L212.156 151.557C211.419 153.112 210.929 154.749 210.729 156.454L220.661 157.617ZM221.192 155.841C221.528 155.133 221.953 154.468 222.478 153.841L214.81 147.422C213.749 148.689 212.861 150.069 212.156 151.557L221.192 155.841ZM222.465 153.856C223.034 153.182 223.686 152.562 224.431 151.995L218.377 144.036C217.064 145.034 215.876 146.158 214.822 147.407L222.465 153.856ZM224.468 151.966C225.206 151.394 225.972 150.93 226.767 150.565L222.592 141.478C221.083 142.172 219.664 143.037 218.34 144.064L224.468 151.966ZM226.819 150.541C227.612 150.165 228.394 149.91 229.171 149.759L227.263 139.942C225.633 140.259 224.057 140.784 222.541 141.502L226.819 150.541ZM229.215 149.75C229.945 149.601 230.611 149.577 231.234 149.65L232.397 139.718C230.666 139.515 228.934 139.602 227.219 139.951L229.215 149.75ZM231.234 149.65C231.717 149.707 231.982 149.814 232.114 149.885L236.851 141.079C235.445 140.322 233.931 139.898 232.397 139.718L231.234 149.65ZM232.114 149.885C232.287 149.978 232.337 150.044 232.354 150.067L240.378 144.099C239.424 142.816 238.218 141.814 236.851 141.079L232.114 149.885ZM232.398 150.124C232.418 150.151 232.486 150.245 232.545 150.493L242.269 148.16C241.916 146.69 241.29 145.288 240.335 144.042L232.398 150.124ZM232.553 150.526C232.595 150.696 232.636 151.009 232.576 151.522L242.508 152.685C242.684 151.18 242.635 149.642 242.261 148.128L232.553 150.526ZM232.576 151.522C232.533 151.886 232.429 152.247 232.239 152.625L241.175 157.113C241.874 155.721 242.326 154.238 242.508 152.685L232.576 151.522ZM232.239 152.625C231.979 153.143 231.658 153.626 231.269 154.079L238.857 160.591C239.771 159.527 240.546 158.365 241.175 157.113L232.239 152.625ZM231.269 154.079C230.828 154.592 230.341 155.06 229.803 155.486L236.004 163.331C237.043 162.51 237.996 161.596 238.857 160.591L231.269 154.079ZM229.803 155.486C229.24 155.93 228.693 156.29 228.162 156.578L232.932 165.368C234.003 164.787 235.026 164.104 236.004 163.331L229.803 155.486ZM228.182 156.568C227.663 156.847 227.245 157.009 226.925 157.1L229.655 166.72C230.78 166.401 231.867 165.939 232.912 165.379L228.182 156.568ZM226.925 157.1C226.851 157.121 226.795 157.134 226.758 157.142C226.719 157.15 226.703 157.152 226.706 157.151C226.709 157.151 226.737 157.148 226.786 157.147C226.835 157.147 226.909 157.149 227.006 157.16L225.842 167.092C227.234 167.255 228.551 167.034 229.655 166.72L226.925 157.1ZM227.006 157.16C227.316 157.197 227.723 157.323 228.112 157.598L222.335 165.76C223.417 166.526 224.624 166.95 225.842 167.092L227.006 157.16ZM228.332 157.763C228.403 157.819 228.502 157.917 228.595 158.059L220.22 163.523C220.746 164.329 221.39 165.02 222.115 165.595L228.332 157.763ZM228.75 158.313C228.743 158.3 228.769 158.343 228.795 158.438L219.141 161.047C219.357 161.846 219.676 162.588 220.064 163.269L228.75 158.313ZM228.816 158.518C228.82 158.534 228.839 158.613 228.852 158.746C228.864 158.877 228.874 159.092 228.841 159.367L218.909 158.204C218.785 159.268 218.934 160.229 219.12 160.967L228.816 158.518ZM228.841 159.367C228.835 159.418 228.809 159.642 228.715 159.953C228.667 160.115 228.582 160.364 228.436 160.656C228.295 160.939 228.045 161.369 227.625 161.811L220.377 154.921C219.547 155.794 219.241 156.732 219.137 157.081C219.001 157.532 218.941 157.935 218.909 158.204L228.841 159.367ZM227.101 162.289C226.546 162.728 225.831 163.085 224.993 163.234C224.169 163.379 223.436 163.286 222.872 163.123L225.652 153.517C224.139 153.079 222.351 153.297 220.901 154.443L227.101 162.289ZM223.681 163.286C223.393 163.252 223.167 163.195 223.02 163.151C222.869 163.106 222.76 163.062 222.698 163.035L226.666 153.856C226.254 153.678 225.619 153.445 224.844 153.354L223.681 163.286ZM223.138 163.201C223.687 163.379 224.213 163.476 224.675 163.53L225.838 153.598C225.862 153.601 226.006 153.618 226.226 153.69L223.138 163.201ZM224.675 163.53C226.516 163.746 228.225 163.309 229.636 162.712L225.738 153.503C225.644 153.543 225.575 153.567 225.528 153.582C225.482 153.596 225.463 153.599 225.47 153.598C225.484 153.595 225.617 153.572 225.838 153.598L224.675 163.53ZM229.636 162.712C230.997 162.136 232.26 161.37 233.427 160.447L227.226 152.602C226.703 153.015 226.207 153.305 225.738 153.503L229.636 162.712ZM233.427 160.447C234.625 159.5 235.679 158.407 236.569 157.17L228.452 151.329C228.12 151.79 227.718 152.213 227.226 152.602L233.427 160.447ZM236.528 157.226C237.561 155.832 238.346 154.172 238.568 152.275L228.636 151.112C228.646 151.031 228.663 150.994 228.656 151.011C228.646 151.033 228.605 151.121 228.493 151.273L236.528 157.226ZM238.568 152.275C238.766 150.583 238.564 148.56 237.322 146.736L229.055 152.361C228.83 152.031 228.715 151.703 228.666 151.448C228.62 151.21 228.64 151.081 228.636 151.112L238.568 152.275ZM237.376 146.816C235.838 144.459 233.36 143.768 231.69 143.572L230.527 153.504C230.66 153.52 230.509 153.522 230.213 153.378C229.882 153.217 229.393 152.881 229.001 152.281L237.376 146.816ZM231.69 143.572C230.404 143.421 229.14 143.529 227.952 143.776L229.99 153.566C230.375 153.486 230.535 153.505 230.527 153.504L231.69 143.572ZM228.02 143.763C226.858 143.988 225.725 144.352 224.628 144.826L228.589 154.008C229.107 153.785 229.55 153.652 229.923 153.58L228.02 143.763ZM224.628 144.826C223.494 145.315 222.412 145.925 221.382 146.638L227.075 154.86C227.603 154.494 228.108 154.216 228.589 154.008L224.628 144.826ZM221.382 146.638C220.291 147.393 219.298 148.264 218.41 149.246L225.83 155.95C226.196 155.546 226.608 155.183 227.075 154.86L221.382 146.638ZM218.446 149.207C217.518 150.212 216.736 151.328 216.099 152.54L224.952 157.191C225.192 156.733 225.473 156.338 225.794 155.989L218.446 149.207ZM216.075 152.587C215.375 153.953 214.942 155.41 214.764 156.926L224.696 158.089C224.739 157.722 224.836 157.418 224.976 157.144L216.075 152.587ZM214.764 156.926C214.578 158.515 214.676 160.144 215.175 161.738L224.718 158.748C224.696 158.679 224.65 158.485 224.696 158.089L214.764 156.926ZM215.216 161.861C215.658 163.155 216.287 164.361 217.089 165.466L225.183 159.593C224.958 159.283 224.794 158.964 224.678 158.625L215.216 161.861ZM217.131 165.523C217.866 166.506 218.699 167.412 219.62 168.244L226.324 160.824C225.858 160.403 225.467 159.973 225.141 159.536L217.131 165.523ZM219.62 168.244C220.34 168.894 221.075 169.545 221.828 170.198L228.379 162.642C227.676 162.033 226.992 161.427 226.324 160.824L219.62 168.244ZM221.883 170.245C222.531 170.79 223.161 171.356 223.774 171.942L230.689 164.719C229.922 163.985 229.134 163.277 228.323 162.595L221.883 170.245ZM223.826 171.991C224.244 172.381 224.59 172.789 224.876 173.215L233.185 167.651C232.455 166.561 231.601 165.567 230.637 164.67L223.826 171.991ZM224.95 173.323C225.15 173.606 225.297 173.91 225.398 174.258L235.006 171.484C234.597 170.069 233.963 168.747 233.11 167.543L224.95 173.323ZM225.433 174.375C225.458 174.452 225.516 174.697 225.457 175.204L235.389 176.367C235.582 174.722 235.493 173.024 234.97 171.368L225.433 174.375ZM225.457 175.204C225.412 175.586 225.304 175.903 225.134 176.2L233.805 181.181C234.662 179.69 235.19 178.07 235.389 176.367L225.457 175.204ZM225.112 176.238C224.927 176.567 224.716 176.806 224.471 177L230.672 184.845C231.967 183.822 233.021 182.573 233.826 181.143L225.112 176.238ZM224.471 177C224.225 177.194 223.922 177.36 223.512 177.482L226.355 187.069C227.922 186.604 229.378 185.868 230.672 184.845L224.471 177ZM223.512 177.482C223.205 177.573 222.856 177.611 222.418 177.56L221.255 187.492C222.969 187.693 224.685 187.564 226.355 187.069L223.512 177.482ZM245.707 184.938L247.892 180.441L247.845 180.418L247.797 180.396L245.707 184.938ZM243.304 182.97L238.729 184.986L238.756 185.048L238.785 185.108L243.304 182.97ZM243.431 181.451L247.826 183.835L247.846 183.799L247.865 183.762L243.431 181.451ZM244.048 180.551L247.77 183.89L247.814 183.841L247.857 183.79L244.048 180.551ZM244.792 179.872L247.582 184.021L244.792 179.872ZM245.985 180.165L241.283 181.865L241.559 182.628L242.062 183.265L245.985 180.165ZM246.712 180.94L243.537 184.803L243.695 184.932L243.862 185.048L246.712 180.94ZM247.576 181.425L245.454 185.952L245.485 185.966L245.516 185.981L247.576 181.425ZM251.551 181.098L254.55 185.099L254.576 185.079L254.601 185.059L251.551 181.098ZM252.557 176.435L247.974 178.435L247.995 178.482L248.016 178.528L252.557 176.435ZM249.502 172.831L246.264 176.64L246.293 176.665L246.323 176.69L249.502 172.831ZM247.365 170.995L244.09 174.773L247.365 170.995ZM243.483 166.604L239.127 169.06L243.483 166.604ZM242.364 163.712L237.479 164.779L237.49 164.827L237.501 164.875L242.364 163.712ZM243.224 156.808L238.706 154.666L243.224 156.808ZM245.193 153.741L241.372 150.517L241.366 150.524L241.36 150.531L245.193 153.741ZM247.954 151.124L250.981 155.104L251 155.09L251.018 155.075L247.954 151.124ZM251.23 149.13L253.317 153.674L253.343 153.662L253.369 153.65L251.23 149.13ZM254.767 147.96L255.721 152.868L255.743 152.863L255.764 152.859L254.767 147.96ZM262.916 150.192L258.904 153.176L258.925 153.205L258.947 153.234L262.916 150.192ZM263.957 152.436L259.095 153.602L259.099 153.619L259.103 153.635L263.957 152.436ZM257.097 164.082L259.461 168.488L259.472 168.482L259.482 168.477L257.097 164.082ZM251.774 164.788L248.665 168.705L248.773 168.79L248.885 168.869L251.774 164.788ZM250.957 163.9L246.614 166.378L246.688 166.507L246.77 166.633L250.957 163.9ZM250.518 162.852L245.67 164.076L245.68 164.116L245.691 164.156L250.518 162.852ZM250.551 161.475L247.451 157.552L247.172 157.773L246.927 158.03L250.551 161.475ZM250.812 161.429L249.422 166.232L249.819 166.347L250.23 166.395L250.812 161.429ZM251.232 161.555L249.248 166.144L249.464 166.238L249.688 166.31L251.232 161.555ZM259.06 157.359L255.043 154.382L255.022 154.41L255.001 154.439L259.06 157.359ZM259.738 152.658L255.551 155.39L255.578 155.431L255.605 155.471L259.738 152.658ZM255.521 151.78L256.472 156.689L256.506 156.682L256.54 156.675L255.521 151.78ZM248.67 155.707L252.344 159.099L252.362 159.079L252.38 159.059L248.67 155.707ZM247.075 157.975L242.649 155.649L242.637 155.673L242.625 155.696L247.075 157.975ZM246.497 163.352L241.725 164.847L241.745 164.909L241.766 164.97L246.497 163.352ZM247.686 165.639L243.639 168.575L243.66 168.604L243.681 168.632L247.686 165.639ZM251.653 169.529L248.377 173.307L248.405 173.331L248.433 173.354L251.653 169.529ZM253.781 171.44L250.323 175.052L250.349 175.076L250.375 175.101L253.781 171.44ZM255.58 173.542L251.425 176.324L251.462 176.379L251.5 176.432L255.58 173.542ZM256.752 175.98L251.948 177.367L251.965 177.426L251.983 177.484L256.752 175.98ZM256.019 181.8L251.684 179.309L251.673 179.328L251.662 179.347L256.019 181.8ZM251.483 185.384L250.062 180.591L251.483 185.384ZM248.968 180.669C248.608 180.627 248.342 180.575 248.156 180.526C247.968 180.477 247.891 180.44 247.892 180.441L243.522 189.436C244.885 190.098 246.373 190.434 247.805 190.601L248.968 180.669ZM247.797 180.396C247.603 180.306 247.483 180.239 247.421 180.2C247.357 180.161 247.383 180.169 247.46 180.24L240.713 187.621C241.612 188.443 242.65 189.035 243.617 189.48L247.797 180.396ZM247.46 180.24C247.404 180.189 247.422 180.198 247.48 180.269C247.534 180.336 247.678 180.523 247.824 180.831L238.785 185.108C239.32 186.239 240.114 187.073 240.713 187.621L247.46 180.24ZM247.88 180.953C247.845 180.874 247.873 180.929 247.918 181.069C247.941 181.139 247.993 181.308 248.037 181.543C248.06 181.664 248.088 181.84 248.103 182.055C248.119 182.262 248.129 182.58 248.083 182.967L238.151 181.804C238.007 183.035 238.371 184.044 238.395 184.12C238.502 184.455 238.629 184.76 238.729 184.986L247.88 180.953ZM248.083 182.967C248.032 183.407 247.897 183.704 247.826 183.835L239.036 179.066C238.617 179.838 238.274 180.758 238.151 181.804L248.083 182.967ZM247.865 183.762C247.863 183.766 247.835 183.817 247.77 183.89L240.326 177.212C239.79 177.81 239.351 178.46 238.998 179.139L247.865 183.762ZM247.857 183.79C247.848 183.801 247.762 183.9 247.582 184.021L242.002 175.723C241.304 176.192 240.722 176.744 240.238 177.313L247.857 183.79ZM247.582 184.021C247.461 184.102 247.188 184.271 246.777 184.412C246.359 184.556 245.696 184.705 244.876 184.609L246.04 174.677C244.095 174.449 242.633 175.298 242.002 175.723L247.582 184.021ZM244.876 184.609C243.834 184.487 242.917 184.009 242.248 183.346C241.649 182.753 241.387 182.154 241.283 181.865L250.687 178.464C250.247 177.248 248.937 175.016 246.04 174.677L244.876 184.609ZM242.062 183.265C242.306 183.573 241.952 183.126 242.285 183.547L250.13 177.346C250.071 177.271 250.167 177.393 250.109 177.318C250.09 177.295 250.116 177.328 250.098 177.305C250.096 177.302 250.099 177.306 250.097 177.304C250.097 177.303 250.096 177.303 250.096 177.303C250.096 177.302 250.096 177.302 250.095 177.302C250.091 177.296 250.097 177.304 250.093 177.299C250.075 177.276 250.106 177.315 250.088 177.292C250.022 177.209 250.114 177.325 250.05 177.244C249.794 176.92 250.236 177.48 249.986 177.163C249.973 177.147 249.991 177.17 249.979 177.154C249.973 177.147 249.981 177.157 249.975 177.15C249.967 177.139 249.981 177.157 249.972 177.146C249.961 177.132 249.97 177.144 249.96 177.13C249.94 177.106 249.968 177.14 249.948 177.116C249.931 177.094 249.956 177.125 249.938 177.103C249.873 177.021 249.967 177.139 249.908 177.064L242.062 183.265ZM242.285 183.547C242.702 184.074 243.16 184.493 243.537 184.803L249.887 177.077C249.868 177.062 249.883 177.072 249.919 177.108C249.954 177.143 250.032 177.222 250.13 177.346L242.285 183.547ZM243.862 185.048C244.386 185.411 244.932 185.707 245.454 185.952L249.698 176.897C249.624 176.863 249.577 176.838 249.552 176.824C249.527 176.81 249.533 176.811 249.562 176.832L243.862 185.048ZM245.516 185.981C246.443 186.4 247.386 186.615 248.26 186.718L249.423 176.786C249.377 176.78 249.376 176.777 249.411 176.786C249.446 176.795 249.525 176.819 249.636 176.869L245.516 185.981ZM248.26 186.718C250.397 186.968 252.63 186.537 254.55 185.099L248.552 177.097C248.719 176.971 248.927 176.872 249.14 176.821C249.34 176.772 249.451 176.789 249.423 176.786L248.26 186.718ZM254.601 185.059C256.611 183.512 257.58 181.336 257.836 179.149L247.904 177.986C247.897 178.04 247.903 177.924 248.009 177.721C248.123 177.502 248.296 177.293 248.5 177.136L254.601 185.059ZM257.836 179.149C258.023 177.548 257.816 175.9 257.098 174.342L248.016 178.528C247.964 178.416 247.929 178.294 247.912 178.18C247.896 178.068 247.902 177.998 247.904 177.986L257.836 179.149ZM257.14 174.435C256.621 173.247 255.909 172.186 255.071 171.248L247.615 177.912C247.831 178.154 247.929 178.33 247.974 178.435L257.14 174.435ZM255.071 171.248C254.352 170.444 253.549 169.686 252.681 168.971L246.323 176.69C246.854 177.127 247.279 177.536 247.615 177.912L255.071 171.248ZM252.741 169.021C252.056 168.439 251.356 167.838 250.641 167.218L244.09 174.773C244.829 175.414 245.553 176.036 246.264 176.64L252.741 169.021ZM250.641 167.218C250.03 166.688 249.434 166.122 248.852 165.517L241.646 172.45C242.431 173.267 243.246 174.041 244.09 174.773L250.641 167.218ZM248.852 165.517C248.467 165.116 248.129 164.664 247.838 164.148L239.127 169.06C239.824 170.296 240.664 171.43 241.646 172.45L248.852 165.517ZM247.838 164.148C247.589 163.706 247.379 163.182 247.227 162.548L237.501 164.875C237.853 166.346 238.388 167.749 239.127 169.06L247.838 164.148ZM247.249 162.645C247.156 162.219 247.109 161.599 247.211 160.726L237.279 159.563C237.074 161.313 237.106 163.071 237.479 164.779L247.249 162.645ZM247.211 160.726C247.275 160.178 247.438 159.591 247.742 158.95L238.706 154.666C237.969 156.221 237.479 157.858 237.279 159.563L247.211 160.726ZM247.742 158.95C248.078 158.242 248.503 157.577 249.027 156.95L241.36 150.531C240.299 151.798 239.411 153.178 238.706 154.666L247.742 158.95ZM249.015 156.965C249.584 156.291 250.236 155.671 250.981 155.104L244.927 147.145C243.614 148.143 242.426 149.267 241.372 150.517L249.015 156.965ZM251.018 155.075C251.756 154.503 252.521 154.039 253.317 153.674L249.142 144.587C247.632 145.281 246.214 146.146 244.89 147.173L251.018 155.075ZM253.369 153.65C254.162 153.274 254.944 153.019 255.721 152.868L253.812 143.052C252.183 143.369 250.607 143.894 249.091 144.611L253.369 153.65ZM255.764 152.859C256.495 152.71 257.161 152.686 257.784 152.759L258.947 142.827C257.216 142.624 255.483 142.711 253.769 143.06L255.764 152.859ZM257.784 152.759C258.267 152.816 258.532 152.923 258.664 152.995L263.401 144.188C261.994 143.431 260.481 143.007 258.947 142.827L257.784 152.759ZM258.664 152.995C258.837 153.087 258.887 153.153 258.904 153.176L266.928 147.209C265.974 145.925 264.768 144.923 263.401 144.188L258.664 152.995ZM258.947 153.234C258.968 153.26 259.035 153.354 259.095 153.602L268.819 151.269C268.466 149.799 267.84 148.397 266.885 147.151L258.947 153.234ZM259.103 153.635C259.145 153.805 259.186 154.118 259.126 154.631L269.058 155.794C269.234 154.29 269.185 152.751 268.811 151.237L259.103 153.635ZM259.126 154.631C259.083 154.995 258.979 155.356 258.789 155.734L267.725 160.222C268.424 158.83 268.876 157.347 269.058 155.794L259.126 154.631ZM258.789 155.734C258.528 156.252 258.208 156.735 257.819 157.188L265.407 163.701C266.321 162.636 267.096 161.474 267.725 160.222L258.789 155.734ZM257.819 157.188C257.378 157.701 256.891 158.17 256.353 158.595L262.553 166.44C263.593 165.619 264.546 164.705 265.407 163.701L257.819 157.188ZM256.353 158.595C255.79 159.039 255.243 159.4 254.712 159.688L259.482 168.477C260.552 167.896 261.576 167.213 262.553 166.44L256.353 158.595ZM254.732 159.677C254.212 159.956 253.795 160.118 253.475 160.209L256.205 169.83C257.33 169.51 258.417 169.048 259.461 168.488L254.732 159.677ZM253.475 160.209C253.401 160.23 253.345 160.243 253.307 160.251C253.269 160.259 253.253 160.261 253.256 160.26C253.259 160.26 253.287 160.257 253.335 160.257C253.385 160.256 253.459 160.258 253.555 160.269L252.392 170.202C253.783 170.365 255.101 170.143 256.205 169.83L253.475 160.209ZM253.555 160.269C253.866 160.306 254.273 160.432 254.662 160.707L248.885 168.869C249.966 169.635 251.174 170.059 252.392 170.202L253.555 160.269ZM254.882 160.872C254.952 160.928 255.052 161.026 255.145 161.168L246.77 166.633C247.296 167.439 247.94 168.129 248.665 168.705L254.882 160.872ZM255.3 161.422C255.293 161.41 255.319 161.452 255.344 161.547L245.691 164.156C245.907 164.955 246.226 165.697 246.614 166.378L255.3 161.422ZM255.365 161.627C255.369 161.643 255.389 161.722 255.401 161.855C255.414 161.987 255.423 162.201 255.391 162.476L245.459 161.313C245.334 162.377 245.483 163.338 245.67 164.076L255.365 161.627ZM255.391 162.476C255.385 162.527 255.358 162.751 255.265 163.062C255.217 163.224 255.131 163.473 254.986 163.765C254.845 164.048 254.594 164.479 254.175 164.92L246.927 158.03C246.097 158.903 245.791 159.841 245.686 160.19C245.551 160.641 245.491 161.044 245.459 161.313L255.391 162.476ZM253.651 165.398C253.095 165.837 252.381 166.195 251.543 166.343C250.718 166.488 249.986 166.395 249.422 166.232L252.202 156.626C250.689 156.188 248.9 156.406 247.451 157.552L253.651 165.398ZM250.23 166.395C249.942 166.361 249.717 166.304 249.569 166.26C249.419 166.215 249.31 166.171 249.248 166.144L253.216 156.965C252.804 156.787 252.169 156.554 251.394 156.463L250.23 166.395ZM249.688 166.31C250.237 166.489 250.763 166.585 251.224 166.639L252.388 156.707C252.412 156.71 252.555 156.728 252.776 156.799L249.688 166.31ZM251.224 166.639C253.066 166.855 254.774 166.419 256.186 165.821L252.288 156.612C252.194 156.652 252.125 156.676 252.078 156.691C252.032 156.705 252.013 156.708 252.02 156.707C252.034 156.704 252.167 156.681 252.388 156.707L251.224 166.639ZM256.186 165.821C257.546 165.245 258.81 164.479 259.977 163.557L253.776 155.711C253.253 156.125 252.756 156.414 252.288 156.612L256.186 165.821ZM259.977 163.557C261.175 162.609 262.229 161.516 263.119 160.279L255.001 154.439C254.67 154.899 254.268 155.322 253.776 155.711L259.977 163.557ZM263.077 160.336C264.111 158.941 264.896 157.282 265.118 155.384L255.186 154.221C255.195 154.14 255.213 154.103 255.206 154.121C255.196 154.142 255.155 154.23 255.043 154.382L263.077 160.336ZM265.118 155.384C265.316 153.692 265.114 151.669 263.872 149.845L255.605 155.471C255.38 155.14 255.265 154.812 255.216 154.557C255.17 154.319 255.19 154.19 255.186 154.221L265.118 155.384ZM263.926 149.925C262.387 147.568 259.91 146.877 258.24 146.681L257.077 156.613C257.21 156.629 257.059 156.631 256.763 156.487C256.432 156.326 255.943 155.991 255.551 155.39L263.926 149.925ZM258.24 146.681C256.954 146.53 255.689 146.638 254.502 146.885L256.54 156.675C256.925 156.595 257.085 156.614 257.077 156.613L258.24 146.681ZM254.569 146.872C253.408 147.097 252.275 147.462 251.177 147.935L255.139 157.117C255.657 156.894 256.1 156.761 256.472 156.689L254.569 146.872ZM251.177 147.935C250.044 148.424 248.962 149.034 247.932 149.747L253.625 157.969C254.152 157.603 254.657 157.325 255.139 157.117L251.177 147.935ZM247.932 149.747C246.841 150.503 245.848 151.373 244.96 152.355L252.38 159.059C252.745 158.655 253.157 158.292 253.625 157.969L247.932 149.747ZM244.996 152.316C244.068 153.321 243.286 154.437 242.649 155.649L251.501 160.3C251.742 159.843 252.023 159.447 252.344 159.099L244.996 152.316ZM242.625 155.696C241.925 157.062 241.491 158.52 241.314 160.035L251.246 161.199C251.289 160.832 251.385 160.528 251.526 160.253L242.625 155.696ZM241.314 160.035C241.128 161.624 241.226 163.254 241.725 164.847L251.268 161.857C251.246 161.788 251.2 161.594 251.246 161.199L241.314 160.035ZM241.766 164.97C242.208 166.264 242.837 167.47 243.639 168.575L251.733 162.702C251.508 162.392 251.344 162.073 251.227 161.734L241.766 164.97ZM243.681 168.632C244.416 169.615 245.249 170.521 246.17 171.353L252.874 163.933C252.408 163.512 252.017 163.082 251.691 162.646L243.681 168.632ZM246.17 171.353C246.889 172.003 247.625 172.655 248.377 173.307L254.929 165.751C254.226 165.142 253.541 164.536 252.874 163.933L246.17 171.353ZM248.433 173.354C249.081 173.899 249.711 174.465 250.323 175.052L257.239 167.828C256.472 167.094 255.684 166.386 254.873 165.704L248.433 173.354ZM250.375 175.101C250.794 175.49 251.14 175.898 251.425 176.324L259.735 170.76C259.005 169.67 258.151 168.676 257.187 167.779L250.375 175.101ZM251.5 176.432C251.7 176.715 251.847 177.019 251.948 177.367L261.555 174.593C261.147 173.178 260.513 171.856 259.66 170.652L251.5 176.432ZM251.983 177.484C252.007 177.561 252.066 177.806 252.007 178.313L261.939 179.476C262.131 177.832 262.043 176.134 261.52 174.477L251.983 177.484ZM252.007 178.313C251.962 178.695 251.854 179.012 251.684 179.309L260.354 184.291C261.212 182.799 261.739 181.179 261.939 179.476L252.007 178.313ZM251.662 179.347C251.477 179.676 251.266 179.915 251.021 180.109L257.222 187.955C258.517 186.931 259.571 185.683 260.376 184.252L251.662 179.347ZM251.021 180.109C250.775 180.303 250.472 180.469 250.062 180.591L252.905 190.178C254.472 189.713 255.928 188.977 257.222 187.955L251.021 180.109ZM250.062 180.591C249.755 180.682 249.406 180.721 248.968 180.669L247.805 190.601C249.519 190.802 251.235 190.674 252.905 190.178L250.062 180.591Z" fill="#43494F"/>
</svg>
